<svg width="21" height="21" viewBox="0 0 21 21" fill="none" xmlns="http://www.w3.org/2000/svg">
<path d="M17.7248 14.3553C17.5802 13.9588 17.1583 13.7361 16.7501 13.8416L11.1798 15.2849L11.6759 15.0701C11.9552 14.949 12.1427 14.6795 12.1583 14.3748C12.1759 14.0545 12.0001 13.7556 11.713 13.6131L8.96304 12.2498C7.40249 11.4763 5.57241 11.4705 4.00796 12.2342L3.50796 12.4783C3.18179 12.6365 2.9728 12.9666 2.96499 13.3299L2.9103 16.3084C2.90054 16.8767 3.37905 16.9607 3.92788 17.1053C4.48648 17.2517 4.97085 17.322 5.45327 17.4939L7.92007 18.3806C8.70718 18.6638 9.5353 18.8221 10.3712 18.8494C11.2482 18.8767 12.1115 18.6443 12.8556 18.1775L17.3908 15.3299C17.7169 15.1228 17.8576 14.7185 17.7248 14.3553Z" fill="#B9B9B9"/>
<path d="M9.64041 7.57422C9.76932 7.57031 9.99198 7.56055 10.117 7.54492C10.1092 7.46875 10.1131 7.27734 10.117 7.19922C10.1775 6.16406 10.8396 5.55273 11.9998 5.55078C12.1111 5.55078 12.2166 5.5625 12.3181 5.57813C12.3435 5.4375 12.3611 5.29297 12.365 5.13867C12.3982 3.76172 11.6541 2.42578 9.87674 2.42578C8.58768 2.42578 7.3533 3.43359 7.27323 5.07422C7.21658 6.26953 8.04666 7.61328 9.64041 7.57422Z" fill="#B9B9B9"/>
<path d="M10.1191 7.54883C10.1953 8.46289 10.8633 9.15625 11.9746 9.16406C12.8984 9.16992 13.7051 8.78125 13.8418 7.52539C13.9414 6.61523 13.248 5.72656 12.3184 5.58008C12.1133 6.75781 11.209 7.4082 10.1191 7.54883Z" fill="#B9B9B9"/>
<path d="M10.1113 7.31652C10.1094 7.39464 10.1133 7.47082 10.1192 7.54894C11.209 7.40832 12.1133 6.75792 12.3203 5.58019C12.2227 5.56457 12.1231 5.5548 12.0156 5.55285C10.836 5.54308 10.1387 6.17199 10.1113 7.31652Z" fill="#B9B9B9"/>
<path d="M9.3261 11.0096C9.29876 11.5838 9.89446 12.3358 10.6484 12.2655C11.3066 12.2049 11.8144 11.8143 11.7656 11.0858C11.7187 10.3807 11.3105 9.86705 10.5605 9.84947C9.90032 9.8358 9.36516 10.2225 9.3261 11.0096Z" fill="#B9B9B9"/>
</svg>
