<svg width="21" height="21" viewBox="0 0 21 21" fill="none" xmlns="http://www.w3.org/2000/svg">
<path d="M1.97314 4.15801V16.8855C1.97314 17.1676 2.20166 17.3961 2.48369 17.3961H18.9233C19.2054 17.3961 19.4339 17.1676 19.4339 16.8855V4.15801C19.4339 3.87598 19.2054 3.64746 18.9233 3.64746H2.48369C2.20166 3.64727 1.97314 3.87598 1.97314 4.15801ZM18.1839 4.89727V6.77441H3.22314V4.89727H18.1839ZM3.22314 16.1461V8.02441H18.1839V16.1461H3.22314Z" fill="#B9B9B9"/>
<path d="M7.12266 9.80827L4.78613 12.1446L7.12266 14.4811C7.13986 14.4983 7.16029 14.512 7.18277 14.5213C7.20526 14.5307 7.22937 14.5355 7.25371 14.5355C7.27806 14.5355 7.30216 14.5307 7.32465 14.5213C7.34714 14.512 7.36756 14.4983 7.38477 14.4811L8.00664 13.8592C8.02387 13.842 8.03754 13.8216 8.04686 13.7991C8.05619 13.7766 8.06099 13.7525 8.06099 13.7282C8.06099 13.7038 8.05619 13.6797 8.04686 13.6572C8.03754 13.6348 8.02387 13.6143 8.00664 13.5971L6.5541 12.1446L8.00664 10.6921C8.02387 10.6749 8.03754 10.6544 8.04686 10.6319C8.05619 10.6095 8.06099 10.5853 8.06099 10.561C8.06099 10.5367 8.05619 10.5126 8.04686 10.4901C8.03754 10.4676 8.02387 10.4471 8.00664 10.4299L7.38477 9.80807C7.3123 9.7358 7.19492 9.73581 7.12266 9.80827ZM13.3355 10.6921L14.7881 12.1446L13.3355 13.5971C13.3183 13.6143 13.3047 13.6348 13.2953 13.6572C13.286 13.6797 13.2812 13.7038 13.2812 13.7282C13.2812 13.7525 13.286 13.7766 13.2953 13.7991C13.3047 13.8216 13.3183 13.842 13.3355 13.8592L13.9574 14.4811C13.9746 14.4983 13.9951 14.512 14.0175 14.5213C14.04 14.5307 14.0641 14.5355 14.0885 14.5355C14.1128 14.5355 14.1369 14.5307 14.1594 14.5213C14.1819 14.512 14.2023 14.4983 14.2195 14.4811L16.5561 12.1446L14.2193 9.80827C14.2021 9.79104 14.1817 9.77737 14.1592 9.76805C14.1367 9.75872 14.1126 9.75392 14.0883 9.75392C14.0639 9.75392 14.0398 9.75872 14.0173 9.76805C13.9949 9.77737 13.9744 9.79104 13.9572 9.80827L13.3354 10.4301C13.2631 10.5024 13.2631 10.6198 13.3355 10.6921ZM9.17031 14.5159L9.97695 14.8659C10.0709 14.9067 10.1801 14.8635 10.2207 14.7696L12.21 10.1848C12.2508 10.0909 12.2076 9.9817 12.1137 9.94108L11.307 9.59108C11.2131 9.55026 11.1039 9.59342 11.0633 9.68737L9.07402 14.2719C9.0332 14.3659 9.07637 14.4751 9.17031 14.5159Z" fill="#B9B9B9"/>
</svg>
