<svg width="21" height="21" viewBox="0 0 21 21" fill="none" xmlns="http://www.w3.org/2000/svg">
<path d="M5.8457 6.98438L10.6816 4.41602L15.5176 6.98438L13.7617 7.91797L15.0938 8.625L18.1816 6.98438L10.6816 3L3.18164 6.98438L6.26953 8.625L7.60156 7.91797L5.8457 6.98438ZM9.79883 10.5L10.6816 10.9688L11.5645 10.5L10.6816 10.0312L9.79883 10.5Z" fill="#B9B9B9"/>
<path d="M12.4297 8.625L10.6816 9.55273L8.93359 8.625L7.60156 9.33203L9.79883 10.5L10.6816 10.0312L11.5645 10.5L13.7617 9.33203L12.4297 8.625Z" fill="#B9B9B9"/>
<path d="M8.93359 8.625L7.60156 7.91797L6.26953 8.625L7.60156 9.33203L8.93359 8.625ZM12.4297 8.625L13.7617 9.33203L15.0938 8.625L13.7617 7.91797L12.4297 8.625ZM13.3203 12.8477L15.5176 14.0156L10.6816 16.584L5.8457 14.0156L8.04297 12.8477L6.71094 12.1406L3.18164 14.0156L10.6816 18L18.1816 14.0156L14.6523 12.1406L13.3203 12.8477Z" fill="#B9B9B9"/>
<path d="M15.0938 8.625L13.7617 9.33203L15.5176 10.2656L13.3203 11.4336L11.9883 12.1406L10.6816 12.834L9.375 12.1406L8.04297 11.4336L5.8457 10.2656L7.60156 9.33203L6.26953 8.625L3.18164 10.2656L6.71094 12.1406L8.04297 12.8477L10.6816 14.25L13.3203 12.8477L14.6523 12.1406L18.1816 10.2656L15.0938 8.625Z" fill="#B9B9B9"/>
</svg>
