<svg xmlns="http://www.w3.org/2000/svg" viewBox="0 0 219.86 218.31"><defs><style>.cls-1{fill:#00ef40;}.cls-2{fill:#fff7e0;}.cls-3{fill:#ffbd00;}.cls-4{fill:#ff8b5e;}.cls-5{fill:#ff864b;}.cls-6{fill:#ee6156;}.cls-7{fill:#da95f0;}.cls-8{fill:#5f68e8;}.cls-9{fill:#ff7900;}.cls-10{fill:#fff0c5;}.cls-11{fill:#b567cf;}.cls-12{fill:#fefefe;}.cls-13{fill:#fcf4dd;}.cls-14{fill:#cacdcd;}.cls-15{fill:#6a625b;}.cls-16{fill:#878989;}.cls-17{fill:#fafdfb;}.cls-18{fill:#020302;}.cls-19{fill:#f8f6da;}.cls-20{fill:#fb6a3c;}.cls-21{fill:#fb6d3f;}.cls-22{fill:#c6e1b9;}.cls-23{fill:#f36d3f;}.cls-24{fill:#ff653a;}.cls-25{fill:#ff663b;}.cls-26{fill:#ff874c;}.cls-27{fill:#ff653b;}</style></defs><g id="Layer_2" data-name="Layer 2"><g id="图层_1" data-name="图层 1"><path class="cls-1" d="M42.48,71.54a8.24,8.24,0,0,0-3-.23c-1.1-.22-2.22-.41-3.31-.68-1.94-.47-2.59-1.28-2.6-3.3,0-1.61,0-3.22.1-4.84a3.1,3.1,0,0,1,3.05-3.25c1.23-.09,2.47,0,3.7,0l3,.4a3,3,0,0,1,2.51,1.16,5.82,5.82,0,0,1,1,2.17c.09.25.21.54.53.52s.4-.31.43-.57a3.47,3.47,0,0,1,1-2.29,2.9,2.9,0,0,1,2-.43,23.51,23.51,0,0,0,2.52.36c1,.27,2,.3,2.68,1.23a3,3,0,0,1,1.26,2.51,28.94,28.94,0,0,1-.27,5.5,3.23,3.23,0,0,1-2.12,2.45c-2.05.93-4,.43-5.93-.41a2.74,2.74,0,0,1-1.45-2.38c-.06-.55.09-1.17-.36-1.7C45.22,71.65,44.83,72,42.48,71.54Z"/><path class="cls-2" d="M81.51,216.23a8.73,8.73,0,0,1,2.63-3.29,3.77,3.77,0,0,0,1.43-3.4A117.29,117.29,0,0,1,86,194.31c.14-1.61.37-3.22.54-4.83.05-.52.22-.76.8-.71,2.52.21,3.91-1.23,4.74-3.38a19.25,19.25,0,0,0,1.18-6.5c.08-2.62-1.29-4.24-3.83-4.9l-.74-.19c.27-.9.55-1.75.78-2.61a26.8,26.8,0,0,0,.64-2.68c.19-1.1-.19-1.74-1-1.89s-1.28.26-1.62,1.23c-.1.31-.17.63-.26.94-.32,1-.61,2-1,2.92-.41,1.14-.44,1.14-1.65.88-.95-.2-1.61.11-1.85.85s.07,1.25.91,1.68a11,11,0,0,1,2.2,1.35,2.58,2.58,0,0,0,2.14.46c1.5-.17,2.16.39,2.16,1.88a15.56,15.56,0,0,1-.9,5.41c-.68,1.84-1.48,1.9-2.76.91A13.4,13.4,0,0,0,84,183.68c-1.45-.71-2.85-1.53-4.27-2.31-4.6-2.48-5.45-6.73-4.4-10.91a18,18,0,0,1,3.27-6.29,76.14,76.14,0,0,1,9.21-9.79,8.62,8.62,0,0,1,2.85-2.1,1.3,1.3,0,0,0,.76-1.61c-.81-4.51-.4-9.06-.22-13.58a42.78,42.78,0,0,1,2.45-13.17c1.62-4.34,3.9-8.22,7.73-11a19.33,19.33,0,0,1,13.32-3.63,14,14,0,0,1,10,5.91,28.48,28.48,0,0,1,5.3,13.92,51.29,51.29,0,0,1-.44,13.89c-.57,4.13-1.14,8.24-1.87,12.34-.33,1.87.55,2.84,2.44,2.88l.81,0c.7.05.89.37.7,1.07a6.92,6.92,0,0,0-.23,3.2,7,7,0,0,0,4.28,5.33,16,16,0,0,0,4.25,1,1.47,1.47,0,0,0,1.84-1.16c.16-.83-.25-1.45-1.28-1.74-.88-.25-1.8-.38-2.69-.6-2.68-.68-3.88-2.54-3.23-5.22.61-2.53,1.83-4.59,4.65-5.26a1.85,1.85,0,0,0,1.4-2.24c-.1-.75-.31-1.49-.42-2.23a5.41,5.41,0,0,1,.56-3.6c.63,0,.69.54.82.89,1.08,2.77,2.53,5.37,3.83,8a9,9,0,0,1-.2,8.71,18.74,18.74,0,0,1-5.26,5.88,71.8,71.8,0,0,1-9.89,5.85c-1.4.73-1.56.94-1.4,2.53.35,3.33.81,6.65,1.1,10,.6,6.84,1.11,13.69.44,20.55a3.24,3.24,0,0,0,1.39,3.35,11.33,11.33,0,0,1,2.72,3.19,2.14,2.14,0,0,1,.52,1.72,13.7,13.7,0,0,1-4.78.31c-3.78-.26-7.55-.58-11.32-.88-1.58-.12-1.59-.12-2.09-1.7a33,33,0,0,0-2.63-6.43,15.12,15.12,0,0,0-2.62-3.49,6.14,6.14,0,0,0-7.6-1,13,13,0,0,0-4.19,3.77,46.8,46.8,0,0,0-5,7.77,1.83,1.83,0,0,1-2,1.18c-2.48-.13-5-.08-7.46-.15A7.21,7.21,0,0,1,81.51,216.23Z"/><path class="cls-3" d="M172.51,73.46a61.63,61.63,0,0,1,8.75,11.15c-.13.46-.53.65-.88.9a9.09,9.09,0,0,0-4.07,9.06c.59,4.31,3.26,6.87,7.24,8.24a5.58,5.58,0,0,0,3-.09c.59-.12,1.28-.49,1.72.32a31.45,31.45,0,0,1-3.89,21.34,25.4,25.4,0,0,1-9.06,8.78c-.28-.2-.16-.39-.1-.57a10.58,10.58,0,0,0-.7-8.61,25,25,0,0,0-5.83-7.27c-1-.91-2-1.78-3-2.68-.43-1,.49-1.55.92-2.21,2.61-4,3-8.11.81-12.39a11.06,11.06,0,0,0-9.57-6.24,11.45,11.45,0,0,0-10.77,5.31c-.39.58-.69,1.22-1.06,1.81-.26.43-.43,1-1.17.86-1.72-.76-3.44-1.55-5.18-2.26a68.7,68.7,0,0,0-46.8-2.45c-2.22.66-4.41,1.42-6.62,2.12-1.18.4-1.48-.62-2-1.26C80.21,91.87,73,90.45,67.61,94.16c-4.63,3.18-6.88,7.76-7.28,13.28a17.33,17.33,0,0,0,.31,5.32,1.52,1.52,0,0,1-.12,1.4,73.87,73.87,0,0,0-8.05,8,39.66,39.66,0,0,0-4.14,6c-1.84,3.33-2.53,6.76-1,10.42-2.41,0-7.55-3.08-10.07-6.2-4.1-5.07-5.16-10.93-4.26-17.25,1.51-.48,2.82.45,4.22.67a11.67,11.67,0,0,0,12.3-6.28c3.22-5.87,2.65-11.77-1.65-17-1-1.21-2.28-2.05-3.23-3.25A104,104,0,0,1,53.86,77.8a107,107,0,0,1,9.58-9.35,6,6,0,0,1,.65-.47c.71-.09,1.06.43,1.44.88,4.92,5.61,12,6.82,18.62,3.12a30.31,30.31,0,0,0,10.32-10.1,39.75,39.75,0,0,0,5.93-15.12,1.5,1.5,0,0,1,.34-.72,22.79,22.79,0,0,1,10.15-1.43c3.16.35,6.36.19,9.52.7A115.08,115.08,0,0,1,136.81,49a2.4,2.4,0,0,1-.66,1.61c-8.56,13-.05,29.23,14.64,31.85,7.49,1.34,14-.83,19.43-6.1C171.13,75.5,171.57,74.3,172.51,73.46Z"/><path class="cls-4" d="M219.86,70.09a19.36,19.36,0,0,1-7.59,14.78,19.67,19.67,0,0,1-2,1.39A118.69,118.69,0,0,1,191,95.45c-.6.23-1.06.44-1.35-.46-2.57-8-7.18-14.84-12.64-21.14a140.45,140.45,0,0,0-10.83-11.4,75.94,75.94,0,0,0-17.31-11.91c-1.23-.62-1.26-.65-.68-1.74,3.37-6.35,6.55-12.8,10.56-18.79A26.35,26.35,0,0,1,166,22.27a14.71,14.71,0,0,1,14.19-1.66,40.22,40.22,0,0,1,11.48,7.21,117.82,117.82,0,0,1,22.78,26.65,37.5,37.5,0,0,1,4.85,11.27A20.38,20.38,0,0,1,219.86,70.09Z"/><path class="cls-5" d="M144.5,139.74l-10.2-.61c-1.16-.07-1.16-.09-1.12-1.33,0-.86.1-1.73.1-2.59,0-.64.31-.86.9-.85s1.3,0,1.95,0a47.56,47.56,0,0,0,16.82-3,6.33,6.33,0,0,0,1.9-.88,1.66,1.66,0,0,0,.59-2.14c-.39-.65-1.08-.8-2-.4a50.38,50.38,0,0,1-18.81,3.73c-1.33,0-1.32,0-1.44-1.25-.08-.76-.15-1.51-.29-2.25s.09-1.17.91-1.35a43.89,43.89,0,0,0,9.85-3.66c1.8-.88,3.56-1.82,5.34-2.74a3.4,3.4,0,0,0,.68-.43,1.35,1.35,0,0,0,.33-1.76,1.34,1.34,0,0,0-1.51-.69,7.58,7.58,0,0,0-2.23,1,78.46,78.46,0,0,1-8.33,4c-1.41.56-2.84,1.06-4.27,1.54s-1.49.47-1.88-.95a27.25,27.25,0,0,0-4.76-9.69c-2.94-3.77-6.69-6.45-11.5-6.93-8.39-.82-15.4,2-20.66,8.76a27.14,27.14,0,0,0-3.26,5.59c-.52,1.16-.56,1.2-1.6.62-3.4-1.9-6.79-3.83-9.51-6.7a5,5,0,0,0-.59-.54,1.15,1.15,0,0,0-1.5,0,1.23,1.23,0,0,0-.4,1.46,4.4,4.4,0,0,0,1.14,1.56,36.26,36.26,0,0,0,10,7.07c.69.34,1.06.6.71,1.43s-.18,2-.85,2.55-1.67.11-2.52.21a66.54,66.54,0,0,1-8.59.29,32.72,32.72,0,0,1-8.18-1,2.86,2.86,0,0,0-.95-.15,1.18,1.18,0,0,0-1.18.93,1.2,1.2,0,0,0,.55,1.4,7.14,7.14,0,0,0,2.13.76,33.68,33.68,0,0,0,7.86,1,67.17,67.17,0,0,0,8.27-.29c.42-.05.86,0,1.29,0,.67,0,1,.12.88.91a39,39,0,0,0-.41,4c0,.76-.31,1-1.05,1.09-1.88.18-3.76.41-5.64.65-4.87.62-9.74,1.33-14.63,1.86a60.1,60.1,0,0,1-12.79.22,4.51,4.51,0,0,1-4.27-3.55,8.09,8.09,0,0,1,.55-5.68,32.84,32.84,0,0,1,6.25-8.83,88.09,88.09,0,0,1,17.48-13.88A75.88,75.88,0,0,1,104.77,97a63,63,0,0,1,29.41,3.07,101.57,101.57,0,0,1,27,14.26,60.23,60.23,0,0,1,7.11,6.14,16.3,16.3,0,0,1,4.1,6.16,6.4,6.4,0,0,1-1.54,7.17,14.62,14.62,0,0,1-3.65,2.38,32.48,32.48,0,0,1-12.48,3.18C151.32,139.62,147.91,139.8,144.5,139.74Z"/><path class="cls-6" d="M11.82,174.79a35.19,35.19,0,0,1-8-.65,7.59,7.59,0,0,1-2.72-1,2.05,2.05,0,0,1-1-2.5A9.38,9.38,0,0,1,2,167.07a41.18,41.18,0,0,1,7.38-7.25,126.67,126.67,0,0,1,16.48-10.61c3.76-2.14,7.57-4.17,11.49-6A35.67,35.67,0,0,1,43.4,141a1.87,1.87,0,0,1,1.24.09A36.35,36.35,0,0,0,58,143.38a104.46,104.46,0,0,0,15.5-1.2l6.9-.92c.27,0,.61-.14.78,0,1.32.92,3,1.39,3.92,2.8a3.75,3.75,0,0,1,.5,3.4,13.71,13.71,0,0,1-3.19,5.38,36.17,36.17,0,0,1-10.24,7c-10.64,5.39-22,8.76-33.52,11.38a147.77,147.77,0,0,1-18.2,3.08A74.84,74.84,0,0,1,11.82,174.79Z"/><path class="cls-7" d="M67.76,45.64a10,10,0,0,0-.55-3.57,12,12,0,0,0-4.59-5.73,22.31,22.31,0,0,0-14.13-3.8A21.4,21.4,0,0,0,40,34.6a16.27,16.27,0,0,0-2.64,1.57c-3.21,2.38-5,5.46-4.68,9.76A7.83,7.83,0,0,1,29.22,42a13.89,13.89,0,0,1-.65-7.81,32.6,32.6,0,0,1,3.76-10.47A70,70,0,0,1,50,2.34c.17-.14.34-.26.5-.41C53.5-.91,58-.21,60.52,1.42A25.88,25.88,0,0,1,67.23,7.7a36.53,36.53,0,0,1,6.61,16.53,27.9,27.9,0,0,1-.68,13,19.18,19.18,0,0,1-4.63,8.07C68.35,45.48,68.21,45.76,67.76,45.64Z"/><path class="cls-8" d="M201.94,151.11a31.36,31.36,0,0,1-2.57,12.45,16.73,16.73,0,0,1-1.88,3.22c-2.35,3.15-5.61,4.23-9.4,4a28.63,28.63,0,0,1-8.9-2.29,62.81,62.81,0,0,1-12.78-7,21.78,21.78,0,0,1-4.52-4.16,8.54,8.54,0,0,1-1.16-9.56,26.57,26.57,0,0,1,5.28-7.14,4.2,4.2,0,0,1,1.89-.87,39,39,0,0,0,13.33-7.16,27.42,27.42,0,0,0,3.12-3.07,1.57,1.57,0,0,1,1.24-.57,11.88,11.88,0,0,1,7.9,1.76,17.32,17.32,0,0,1,6.18,7.35,24.75,24.75,0,0,1,1.89,7.52A40.3,40.3,0,0,1,201.94,151.11Z"/><path class="cls-9" d="M172.51,73.46c-.49,2.16-2.12,3.5-3.68,4.79a22.25,22.25,0,0,1-12.23,5,22.89,22.89,0,0,1-22.24-12.65,19.41,19.41,0,0,1-2.07-9.54,20.42,20.42,0,0,1,4.52-12A54,54,0,0,1,147.9,53.4,74.19,74.19,0,0,1,169,69.47,29.5,29.5,0,0,1,172.51,73.46Z"/><path class="cls-10" d="M47.56,213.72a1.74,1.74,0,0,0-1.44-.93c-2-.11-4,0-5.58,1.91a2.72,2.72,0,0,0-1.78-1.63c-.4-.15-.79-.35-1.18-.53a9.54,9.54,0,0,1-5.3-6,42,42,0,0,1-1.6-11,31.73,31.73,0,0,1,.44-8.08A2.16,2.16,0,0,0,29.93,185a83.69,83.69,0,0,1-7.64-5.74c-.6-.52-1.16-1.09-2-1.87a195.42,195.42,0,0,0,41.88-9.84,38.73,38.73,0,0,1-2.84,7.86A44,44,0,0,1,53,184.61a6.1,6.1,0,0,0-1.47,5.63,69.57,69.57,0,0,1,1.19,14.19c0,1.19-.1,2.37-.14,3.56A3.93,3.93,0,0,1,50,211.88a2.55,2.55,0,0,0-1.79,1.51C48,213.58,47.93,213.92,47.56,213.72Z"/><path class="cls-2" d="M153.06,211.87a23.74,23.74,0,0,1,.74-6.24c.41-1.9.87-3.78,1.31-5.67a9,9,0,0,0,.09-4.19,22.93,22.93,0,0,1,.43-10.89c1.75-7.18,4.81-13.85,8.14-20.4a5,5,0,0,1,.47-.7c6.46,4.39,13.24,8,20.86,9.75.18.52-.18.86-.33,1.22-2.37,5.63-5.12,11.07-7.8,16.55a33.94,33.94,0,0,1-8.66,11.59,4.06,4.06,0,0,0-1.37,2.5c-.4,2.12-.82,4.23-1.25,6.35a5.81,5.81,0,0,1-.79,2.11c-.66-.06-.74-.57-.87-1a9.43,9.43,0,0,1-.16-3.22c.1-1.51.29-3,.42-4.51a12.58,12.58,0,0,0,.05-1.62,2.31,2.31,0,0,0-3.1-2.3,6.57,6.57,0,0,0-5,3.93c-.44,1-.84,2.11-1.25,3.17A10.83,10.83,0,0,1,153.06,211.87Z"/><path class="cls-2" d="M161.13,141.65a28.88,28.88,0,0,0-2.5,3.59c-3,5.36-2.43,10.36,1.64,14.93.56.63,1.59,1.09,1.55,1.92s-.75,1.4-1.14,2.11a85.25,85.25,0,0,0-7.89,19.46c-.33,1.26-.34,1.25-1.54,1a12.34,12.34,0,0,0-3.2-.43c-2.07,0-3.25.85-3.78,2.86s-.93,4-1.31,6c-.58,3.14-1.06,6.29-1.63,9.42a10.5,10.5,0,0,1-1.1,3.54c-.14.23-.33.49-.63.45s-.44-.42-.44-.74c0-2.38.2-4.75.42-7.11.38-4.14.8-8.28,1.17-12.42a9.55,9.55,0,0,0-1-6c-.66-1.13-.37-2.42-.28-3.65a4.56,4.56,0,0,1,2.26-3.82,19.25,19.25,0,0,0,6.05-6.66,11.44,11.44,0,0,0,0-11.75,51.62,51.62,0,0,1-2.95-6.47,9.8,9.8,0,0,0-1.65-3.31,1.34,1.34,0,0,1-.3-1c0-.55.12-1,.82-.86a8.64,8.64,0,0,0,1.14,0,82.1,82.1,0,0,0,15.18-.95A11,11,0,0,1,161.13,141.65Z"/><path class="cls-9" d="M100.74,46c.14,2.77-1,5.26-1.82,7.79A35.31,35.31,0,0,1,92.59,65.2c-3.35,4-7.16,7.47-12.46,8.8A14.15,14.15,0,0,1,67.4,71.26c-1.27-1-2.06-2.35-3.31-3.28a3.31,3.31,0,0,1,1-1A133.63,133.63,0,0,1,91.43,49.67,46.22,46.22,0,0,1,100.74,46Z"/><path class="cls-2" d="M58.85,218.31a2.42,2.42,0,0,1-.9-1.45,86.62,86.62,0,0,1-2.23-9.79,9.86,9.86,0,0,1,0-2.1,78.8,78.8,0,0,0-1.24-15.64,2.79,2.79,0,0,1,.64-2.51,54.84,54.84,0,0,0,6.5-9.28c.65-1.23,1.22-2.5,2-4.09.62,2.45,1.27,4.57,1.69,6.74,2,10.18,4.31,20.28,6.4,30.43a10.12,10.12,0,0,1,.22,3.38c0,.32,0,.72-.38.84s-.65-.28-.87-.57a6.69,6.69,0,0,1-1-2c-.65-1.95-1.24-3.91-2.08-5.79a13.69,13.69,0,0,0-1.6-2.81c-1.84-2.33-4.57-2.21-6.18.28a8.63,8.63,0,0,0-1.29,4,26.31,26.31,0,0,0,.12,5A29.18,29.18,0,0,1,58.85,218.31Z"/><path class="cls-9" d="M44.61,89.18c1.94.5,2.86,2.19,4,3.56A13.85,13.85,0,0,1,52,101.47a14.72,14.72,0,0,1-3.53,10.28,11.85,11.85,0,0,1-4.68,3.63,12.29,12.29,0,0,1-6.28.82c-1.56-.25-3-.73-4.52-1.11a19.22,19.22,0,0,1,1.08-6c2.15-7.24,5.91-13.64,10.3-19.7A.83.83,0,0,1,44.61,89.18Z"/><path class="cls-9" d="M144.85,101.17c.9-.48,1-1.48,1.44-2.25a12.22,12.22,0,0,1,12.24-6.14,11.79,11.79,0,0,1,10.34,9.14c1.11,4.08,0,7.75-2.55,11-.26.34-.65.59-.63,1.08l-3.47-2.62a107.24,107.24,0,0,0-15.69-9.3A5.8,5.8,0,0,1,144.85,101.17Z"/><path class="cls-9" d="M60.52,114.16c-1.43-5.78-.79-11.27,2.62-16.2a13.49,13.49,0,0,1,8.66-6,12,12,0,0,1,8.43,1.26A12.93,12.93,0,0,1,85,97.65c.3.48.57.93,1.21.93a10.1,10.1,0,0,1-2.33,1.09,96.4,96.4,0,0,0-22.1,13.55A4.65,4.65,0,0,1,60.52,114.16Z"/><path class="cls-2" d="M56,61.78,53.43,61s-.09-.07-.11-.11c-1.08-2.31-1.19-2-2.57-.3a2.9,2.9,0,0,0-2,.49c-.05,0-.12,0-.15,0-1.38-1.71-1.38-1.71-3.07-.19l-2.22-1.17A81.75,81.75,0,0,1,45.09,49.1a18.5,18.5,0,0,1,2.4-6,6.09,6.09,0,0,1,4.58-3c2.42-.23,3.8.84,4.2,3.24a29.78,29.78,0,0,1,.38,5.17A127.57,127.57,0,0,1,56,61.78Z"/><path class="cls-11" d="M59.7,49.27c-.1-2.21-.12-4.2-.38-6.18-.69-5.15-5.38-7.24-9.77-5.48a10.09,10.09,0,0,0-5.14,4.73,24.4,24.4,0,0,0-2,4.95c-.46,1.6-.46,1.61-2.16,1.3-.84-.15-1.68-.41-2.53-.53a1.84,1.84,0,0,1-1.57-1.42,6.21,6.21,0,0,1,1.32-6.48A12.18,12.18,0,0,1,43,36.65a21.07,21.07,0,0,1,15.19.64,11.76,11.76,0,0,1,5.19,4,6.16,6.16,0,0,1,1,5.68,2,2,0,0,1-1.62,1.61C61.82,48.76,60.88,49,59.7,49.27Z"/><path class="cls-9" d="M188.3,103c-.71-.44-1.37,0-2,.18a5.37,5.37,0,0,1-3.32-.14c-4.26-1.62-6.78-4.63-7.23-9.21-.32-3.36,2-8,5.51-9.26a37.5,37.5,0,0,1,4.93,9.53A32.46,32.46,0,0,1,188.3,103Z"/><path class="cls-2" d="M42.48,71.54l1-.16a3,3,0,0,0,2.76-2.51c.11-.46.13-1,.22-1.43.06-.32.21-.64.63-.57s.75.16.75.67,0,.86,0,1.29c0,1.89.72,2.69,2.56,3.13a21.82,21.82,0,0,0,4.49.28c-3.62,3.92-7.22,7.84-10.47,12.08a37.2,37.2,0,0,1-2.46,3A152.81,152.81,0,0,1,42.48,71.54Z"/><path class="cls-12" d="M133.51,142.07c2.05.29,3.88.28,5.71.37.31,0,.72,0,.83.35a.84.84,0,0,1-.38,1c-2.52,1.82-2.85,4.46-2.45,7.23a1.43,1.43,0,0,1-1,1.82,8.27,8.27,0,0,0-2.55,2.2,2.31,2.31,0,0,1-2.57.5c-.38-.2-.29-.52-.24-.83.25-1.6.51-3.19.74-4.79.32-2.24.64-4.48.91-6.72C132.64,142.37,132.86,141.91,133.51,142.07Z"/><path class="cls-13" d="M191.93,106.88c-.3-2.55-.62-5-1.15-7.49-.08-.35,0-.65.36-.78,2.11-.74,4.18-1.57,6.32-2.38C195.51,99.76,193.78,103.33,191.93,106.88Z"/><path class="cls-14" d="M86.17,140.48c1.72-.22,2.08-.67,1.79,2.06A4.93,4.93,0,0,1,86.17,140.48Z"/><path class="cls-15" d="M47.56,213.72c.27,0,.43-.19.62-.33v3.83C47.79,216.07,47.91,214.86,47.56,213.72Z"/><path class="cls-16" d="M87.47,150.73c.24-.59.23-1.13.85-1.39C88.63,150.11,88.43,150.54,87.47,150.73Z"/><path class="cls-17" d="M39.67,68.12c-3.21.06-3.39-.11-3.39-3.2,0-2.88,0-2.88,2.83-2.74.32,0,.64.08,1,.11A7.62,7.62,0,0,1,39.67,68.12Z"/><path class="cls-18" d="M39.67,68.12c.13-1.94.27-3.88.4-5.83a5,5,0,0,1,3,.59,9,9,0,0,1-.43,5.49A7.86,7.86,0,0,1,39.67,68.12Z"/><path class="cls-19" d="M53.39,64.16c.61-.06.91.22.9.83a20.83,20.83,0,0,1-.17,3.53c-.09.53-.28.78-.81.75h-.48c-2.07,0-2.21-.13-2.12-2.16,0-.64.08-1.28.12-1.93C51.75,65,52.72,65,53.39,64.16Z"/><path class="cls-20" d="M45.55,60.8c.06-.15.1-.3.16-.45.29-.8.74-1.45,1.71-1.35s1.16.91,1.24,1.74a1.72,1.72,0,0,0,.11.29,4.76,4.76,0,0,0-.57,2c0,.5.1,1.13-.75,1.15s-1-.52-1.05-1.13A5.46,5.46,0,0,0,45.55,60.8Z"/><path class="cls-21" d="M50.75,60.54c.3-1.45.7-1.95,1.53-1.87s1.14.61,1.15,2.28A8.72,8.72,0,0,1,50.75,60.54Z"/><path class="cls-22" d="M42.64,68.37c.14-1.83.29-3.66.43-5.49a.83.83,0,0,1,.47.61A13.75,13.75,0,0,1,43.37,68C43.28,68.38,43,68.45,42.64,68.37Z"/><path class="cls-23" d="M53.39,64.16c-.68,1.55-.93,1.66-2.56,1-.2-1.65.24-1.49,1.49-1.33A2.14,2.14,0,0,1,53.39,64.16Z"/><path class="cls-24" d="M114.08,129.34c0-1.5,0-3,0-4.52a3.52,3.52,0,0,1,.27-1.57,2.1,2.1,0,0,1,2-1.36,2,2,0,0,1,2,1.39,3.43,3.43,0,0,1,.23,1.09c.05,3.07.43,6.12.37,9.2,0,2.05-1,3.26-2.57,3.21s-2.36-1.22-2.38-3.24c0-1.4,0-2.8,0-4.2Z"/><path class="cls-25" d="M104.91,129.53c0,1.29,0,2.59,0,3.88a6.2,6.2,0,0,1-.15,1.43,2.32,2.32,0,0,1-2.38,2,2.4,2.4,0,0,1-2.39-2,9.76,9.76,0,0,1-.07-3c.15-2.1.37-4.18.53-6.27a5.24,5.24,0,0,1,.33-1.58,2.11,2.11,0,0,1,2.43-1.4,2,2,0,0,1,1.76,2c.07,1.66,0,3.33,0,5Z"/><path class="cls-9" d="M109.1,64.16a9.34,9.34,0,0,1,9.71,7.35,11.71,11.71,0,0,1-2.93,10.77,12.7,12.7,0,0,1-8.16,4.21,9.1,9.1,0,0,1-6.7-1.87,9.47,9.47,0,0,1-4.09-8.7,12.4,12.4,0,0,1,7.76-10.85A9.05,9.05,0,0,1,109.1,64.16Z"/><path class="cls-6" d="M179.07,155.77a9.74,9.74,0,0,0-2,1,11.41,11.41,0,0,1-1.79.73,2.27,2.27,0,0,1-2.84-2.27,4,4,0,0,1,.46-1.87,51.62,51.62,0,0,1,3.29-6.13,8.19,8.19,0,0,1,1.11-1.38,2.25,2.25,0,0,1,3.88.85,12.12,12.12,0,0,1,.41,1.73c.12.57.22,1.15.37,1.92,1.27-.45,2.47-.87,3.64-1.32a2.51,2.51,0,0,1,3.06.73c1,1.16,1.19,1.77.46,3.21-1,2-2.14,4-3.23,6a6.34,6.34,0,0,1-.54.81c-.72,1-1.55,1.86-2.92,1.66s-1.75-1.29-2.14-2.38S179.49,156.94,179.07,155.77Z"/><path class="cls-25" d="M34,199.32a3.74,3.74,0,0,1,.25-1.59,2.17,2.17,0,0,1,2.25-1.5,2.14,2.14,0,0,1,1.94,1.88c.12,1.67.49,3.3.7,5a2.75,2.75,0,0,1-.23,1.89,2.33,2.33,0,0,1-4.25-.35,3.68,3.68,0,0,1-.26-1.1C34.23,202.12,34.11,200.72,34,199.32Z"/><path class="cls-25" d="M43,199.58a13.8,13.8,0,0,1,0-1.93,2.28,2.28,0,0,1,2.19-2,2.13,2.13,0,0,1,2.12,1.87,45.58,45.58,0,0,1,.5,4.81,2.27,2.27,0,0,1-1.88,2.3A2.37,2.37,0,0,1,43.35,203,10.59,10.59,0,0,1,43,199.58Z"/><path class="cls-26" d="M52.78,175a5.9,5.9,0,0,1-.52,2.08,21.89,21.89,0,0,1-3.09,5.68c-.83,1.15-1.7,1.39-2.44.84s-.71-1.39.1-2.56A21.45,21.45,0,0,0,50.16,175a2,2,0,0,1,.27-.59c.36-.51.79-1,1.48-.71A1.22,1.22,0,0,1,52.78,175Z"/><path class="cls-27" d="M172.47,190.59a2.46,2.46,0,0,1-2.39-2.84,5.21,5.21,0,0,1,.34-1.08c.92-2.13,1.84-4.27,2.78-6.39a2.27,2.27,0,0,1,2.85-1.5,2.2,2.2,0,0,1,1.32,2.93c-.79,2.46-1.69,4.9-2.63,7.31A2.42,2.42,0,0,1,172.47,190.59Z"/><path class="cls-25" d="M168.6,178.94a7.92,7.92,0,0,1-.18.8c-.61,1.95-1.23,3.9-1.88,5.84a2.54,2.54,0,0,1-1.83,1.87,2.35,2.35,0,0,1-2.89-2.95,46.43,46.43,0,0,1,2.77-6.88,2,2,0,0,1,2.46-1A2.24,2.24,0,0,1,168.6,178.94Z"/></g></g></svg>