<svg width="213" height="71" viewBox="0 0 213 71" fill="none" xmlns="http://www.w3.org/2000/svg">
<g filter="url(#filter0_i_2711_10726)">
<path d="M30.243 33.896H17.175L30.639 20.52H15.767V48.68H32.839V50H14.447V19.2H33.851L20.387 32.576H30.243V33.896ZM58.3226 24.48V25.8H49.0826V50H47.7626V25.8H38.5226V24.48H58.3226ZM81.4329 50H80.1129V37.24H66.9129V50H65.5929V24.48H66.9129V35.92H80.1129V24.48H81.4329V50ZM110.068 25.404C109.394 23.7027 108.44 22.3973 107.208 21.488C105.976 20.5493 104.055 20.08 101.444 20.08C100.007 20.08 98.775 20.2707 97.7483 20.652C96.7216 21.004 95.7976 21.62 94.9763 22.5C94.155 23.38 93.539 24.656 93.1283 26.328C92.7176 27.9707 92.5123 30.0093 92.5123 32.444V36.756C92.5123 39.1907 92.7176 41.244 93.1283 42.916C93.539 44.5587 94.155 45.82 94.9763 46.7C95.7976 47.58 96.7216 48.2107 97.7483 48.592C98.775 48.944 100.007 49.12 101.444 49.12C104.084 49.12 106.182 48.5627 107.736 47.448C109.291 46.304 110.068 45.0867 110.068 43.796V36.36H104.656V35.04H111.652V43.356C111.652 45.3213 110.758 46.9933 108.968 48.372C107.208 49.7507 104.7 50.44 101.444 50.44C97.8363 50.44 95.2256 49.34 93.6123 47.14C91.999 44.9107 91.1923 41.4493 91.1923 36.756V32.444C91.1923 27.7507 91.999 24.304 93.6123 22.104C95.2256 19.8747 97.8363 18.76 101.444 18.76C104.348 18.76 106.519 19.3027 107.956 20.388C109.394 21.444 110.508 22.9547 111.3 24.92L110.068 25.404ZM121.255 24.48H122.575V50H121.255V24.48ZM132.683 50V37.24C132.683 32.6053 133.475 29.2467 135.059 27.164C136.672 25.0813 139.297 24.04 142.935 24.04C147.188 24.04 150.077 25.4333 151.603 28.22L142.407 35.92H151.779V37.24H138.755L149.887 27.956C148.596 26.2253 146.279 25.36 142.935 25.36C141.468 25.36 140.236 25.5213 139.239 25.844C138.241 26.1373 137.317 26.7093 136.467 27.56C135.645 28.3813 135.029 29.5987 134.619 31.212C134.208 32.796 134.003 34.8053 134.003 37.24V50H132.683ZM177.088 24.48V25.8H167.848V50H166.528V25.8H157.288V24.48H177.088ZM191.091 23.952C194.728 23.952 197.309 24.7587 198.835 26.372L197.955 27.34C196.547 25.9613 194.317 25.272 191.267 25.272C186.691 25.272 184.403 27.0907 184.403 30.728C184.403 32.136 184.96 33.2653 186.075 34.116C187.189 34.9373 188.539 35.568 190.123 36.008C191.736 36.448 193.335 36.9173 194.919 37.416C196.532 37.8853 197.896 38.6627 199.011 39.748C200.125 40.804 200.683 42.1973 200.683 43.928C200.683 45.952 199.847 47.5653 198.175 48.768C196.503 49.9707 194.083 50.572 190.915 50.572C189.36 50.572 187.82 50.3667 186.295 49.956C184.799 49.5453 183.684 48.944 182.951 48.152L183.831 47.184C185.327 48.5627 187.629 49.252 190.739 49.252C193.584 49.252 195.725 48.724 197.163 47.668C198.629 46.612 199.363 45.38 199.363 43.972C199.363 42.5053 198.805 41.3173 197.691 40.408C196.576 39.4987 195.212 38.824 193.599 38.384C192.015 37.9147 190.416 37.4453 188.803 36.976C187.219 36.4773 185.869 35.7147 184.755 34.688C183.64 33.6613 183.083 32.312 183.083 30.64C183.083 28.3813 183.831 26.7093 185.327 25.624C186.852 24.5093 188.773 23.952 191.091 23.952Z" fill="#0F0701" fill-opacity="0.6"/>
</g>
<path d="M30.243 33.896V35.396H31.743V33.896H30.243ZM17.175 33.896L16.1178 32.8319L13.5368 35.396H17.175V33.896ZM30.639 20.52L31.6962 21.5841L34.2772 19.02H30.639V20.52ZM15.767 20.52V19.02H14.267V20.52H15.767ZM15.767 48.68H14.267V50.18H15.767V48.68ZM32.839 48.68H34.339V47.18H32.839V48.68ZM32.839 50V51.5H34.339V50H32.839ZM14.447 50H12.947V51.5H14.447V50ZM14.447 19.2V17.7H12.947V19.2H14.447ZM33.851 19.2L34.9082 20.2641L37.4892 17.7H33.851V19.2ZM20.387 32.576L19.3298 31.5119L16.7488 34.076H20.387V32.576ZM30.243 32.576H31.743V31.076H30.243V32.576ZM30.243 32.396H17.175V35.396H30.243V32.396ZM18.2322 34.9601L31.6962 21.5841L29.5818 19.4559L16.1178 32.8319L18.2322 34.9601ZM30.639 19.02H15.767V22.02H30.639V19.02ZM14.267 20.52V48.68H17.267V20.52H14.267ZM15.767 50.18H32.839V47.18H15.767V50.18ZM31.339 48.68V50H34.339V48.68H31.339ZM32.839 48.5H14.447V51.5H32.839V48.5ZM15.947 50V19.2H12.947V50H15.947ZM14.447 20.7H33.851V17.7H14.447V20.7ZM32.7938 18.1359L19.3298 31.5119L21.4442 33.6401L34.9082 20.2641L32.7938 18.1359ZM20.387 34.076H30.243V31.076H20.387V34.076ZM28.743 32.576V33.896H31.743V32.576H28.743ZM58.3226 24.48H59.8226V22.98H58.3226V24.48ZM58.3226 25.8V27.3H59.8226V25.8H58.3226ZM49.0826 25.8V24.3H47.5826V25.8H49.0826ZM49.0826 50V51.5H50.5826V50H49.0826ZM47.7626 50H46.2626V51.5H47.7626V50ZM47.7626 25.8H49.2626V24.3H47.7626V25.8ZM38.5226 25.8H37.0226V27.3H38.5226V25.8ZM38.5226 24.48V22.98H37.0226V24.48H38.5226ZM56.8226 24.48V25.8H59.8226V24.48H56.8226ZM58.3226 24.3H49.0826V27.3H58.3226V24.3ZM47.5826 25.8V50H50.5826V25.8H47.5826ZM49.0826 48.5H47.7626V51.5H49.0826V48.5ZM49.2626 50V25.8H46.2626V50H49.2626ZM47.7626 24.3H38.5226V27.3H47.7626V24.3ZM40.0226 25.8V24.48H37.0226V25.8H40.0226ZM38.5226 25.98H58.3226V22.98H38.5226V25.98ZM81.4329 50V51.5H82.9329V50H81.4329ZM80.1129 50H78.6129V51.5H80.1129V50ZM80.1129 37.24H81.6129V35.74H80.1129V37.24ZM66.9129 37.24V35.74H65.4129V37.24H66.9129ZM66.9129 50V51.5H68.4129V50H66.9129ZM65.5929 50H64.0929V51.5H65.5929V50ZM65.5929 24.48V22.98H64.0929V24.48H65.5929ZM66.9129 24.48H68.4129V22.98H66.9129V24.48ZM66.9129 35.92H65.4129V37.42H66.9129V35.92ZM80.1129 35.92V37.42H81.6129V35.92H80.1129ZM80.1129 24.48V22.98H78.6129V24.48H80.1129ZM81.4329 24.48H82.9329V22.98H81.4329V24.48ZM81.4329 48.5H80.1129V51.5H81.4329V48.5ZM81.6129 50V37.24H78.6129V50H81.6129ZM80.1129 35.74H66.9129V38.74H80.1129V35.74ZM65.4129 37.24V50H68.4129V37.24H65.4129ZM66.9129 48.5H65.5929V51.5H66.9129V48.5ZM67.0929 50V24.48H64.0929V50H67.0929ZM65.5929 25.98H66.9129V22.98H65.5929V25.98ZM65.4129 24.48V35.92H68.4129V24.48H65.4129ZM66.9129 37.42H80.1129V34.42H66.9129V37.42ZM81.6129 35.92V24.48H78.6129V35.92H81.6129ZM80.1129 25.98H81.4329V22.98H80.1129V25.98ZM79.9329 24.48V50H82.9329V24.48H79.9329ZM110.068 25.404L108.674 25.9569L109.225 27.3469L110.617 26.8001L110.068 25.404ZM107.208 21.488L106.299 22.6811L106.308 22.6881L106.318 22.6949L107.208 21.488ZM97.7483 20.652L98.2348 22.0709L98.2528 22.0648L98.2706 22.0581L97.7483 20.652ZM94.9763 22.5L96.0729 23.5235V23.5235L94.9763 22.5ZM93.1283 26.328L94.5835 26.6918L94.585 26.6858L93.1283 26.328ZM93.1283 42.916L91.6716 43.2738L91.6731 43.2798L93.1283 42.916ZM94.9763 46.7L93.8797 47.7235L94.9763 46.7ZM97.7483 48.592L97.226 49.9981L97.2438 50.0048L97.2618 50.0109L97.7483 48.592ZM107.736 47.448L108.61 48.667L108.618 48.6616L108.625 48.6562L107.736 47.448ZM110.068 36.36H111.568V34.86H110.068V36.36ZM104.656 36.36H103.156V37.86H104.656V36.36ZM104.656 35.04V33.54H103.156V35.04H104.656ZM111.652 35.04H113.152V33.54H111.652V35.04ZM108.968 48.372L108.053 47.1838L108.043 47.1912L108.968 48.372ZM93.6123 47.14L92.3971 48.0194L92.4027 48.027L93.6123 47.14ZM93.6123 22.104L94.8219 22.9911L94.8275 22.9834L93.6123 22.104ZM107.956 20.388L107.052 21.5851L107.06 21.591L107.068 21.5968L107.956 20.388ZM111.3 24.92L111.849 26.3161L113.257 25.7628L112.692 24.3593L111.3 24.92ZM111.463 24.8511C110.705 22.9403 109.597 21.3871 108.099 20.2811L106.318 22.6949C107.283 23.4076 108.082 24.465 108.674 25.9569L111.463 24.8511ZM108.117 20.2949C106.498 19.0613 104.179 18.58 101.444 18.58V21.58C103.931 21.58 105.454 22.0374 106.299 22.6811L108.117 20.2949ZM101.444 18.58C99.8813 18.58 98.4629 18.7864 97.226 19.2459L98.2706 22.0581C99.087 21.7549 100.133 21.58 101.444 21.58V18.58ZM97.2618 19.2331C95.9779 19.6733 94.8503 20.4366 93.8797 21.4765L96.0729 23.5235C96.745 22.8034 97.4654 22.3347 98.2348 22.0709L97.2618 19.2331ZM93.8797 21.4765C92.8241 22.6075 92.1187 24.1499 91.6716 25.9702L94.585 26.6858C94.9593 25.1621 95.4858 24.1525 96.0729 23.5235L93.8797 21.4765ZM91.6731 25.9642C91.2228 27.7652 91.0123 29.9352 91.0123 32.444H94.0123C94.0123 30.0834 94.2124 28.1762 94.5835 26.6918L91.6731 25.9642ZM91.0123 32.444V36.756H94.0123V32.444H91.0123ZM91.0123 36.756C91.0123 39.2658 91.2231 41.4476 91.6716 43.2738L94.585 42.5582C94.2122 41.0404 94.0123 39.1155 94.0123 36.756H91.0123ZM91.6731 43.2798C92.1217 45.0744 92.8285 46.5972 93.8797 47.7235L96.0729 45.6765C95.4814 45.0428 94.9562 44.043 94.5835 42.5522L91.6731 43.2798ZM93.8797 47.7235C94.8441 48.7568 95.9598 49.5278 97.226 49.9981L98.2706 47.1859C97.4835 46.8935 96.7511 46.4032 96.0729 45.6765L93.8797 47.7235ZM97.2618 50.0109C98.4865 50.4308 99.8919 50.62 101.444 50.62V47.62C100.122 47.62 99.0634 47.4572 98.2348 47.1731L97.2618 50.0109ZM101.444 50.62C104.282 50.62 106.72 50.0222 108.61 48.667L106.862 46.229C105.643 47.1032 103.887 47.62 101.444 47.62V50.62ZM108.625 48.6562C110.366 47.3753 111.568 45.7654 111.568 43.796H108.568C108.568 44.408 108.216 45.2327 106.847 46.2398L108.625 48.6562ZM111.568 43.796V36.36H108.568V43.796H111.568ZM110.068 34.86H104.656V37.86H110.068V34.86ZM106.156 36.36V35.04H103.156V36.36H106.156ZM104.656 36.54H111.652V33.54H104.656V36.54ZM110.152 35.04V43.356H113.152V35.04H110.152ZM110.152 43.356C110.152 44.7826 109.536 46.041 108.053 47.1838L109.884 49.5602C111.979 47.9456 113.152 45.8601 113.152 43.356H110.152ZM108.043 47.1912C106.644 48.2873 104.513 48.94 101.444 48.94V51.94C104.888 51.94 107.773 51.214 109.893 49.5528L108.043 47.1912ZM101.444 48.94C98.1458 48.94 96.0661 47.9495 94.8219 46.253L92.4027 48.027C94.3852 50.7305 97.5268 51.94 101.444 51.94V48.94ZM94.8275 46.2606C93.4895 44.4118 92.6923 41.3335 92.6923 36.756H89.6923C89.6923 41.5652 90.5084 45.4095 92.3971 48.0194L94.8275 46.2606ZM92.6923 36.756V32.444H89.6923V36.756H92.6923ZM92.6923 32.444C92.6923 27.8639 93.4905 24.8066 94.8219 22.991L92.4027 21.217C90.5074 23.8014 89.6923 27.6374 89.6923 32.444H92.6923ZM94.8275 22.9834C96.0745 21.2602 98.1531 20.26 101.444 20.26V17.26C97.5195 17.26 94.3768 18.4891 92.3971 21.2246L94.8275 22.9834ZM101.444 20.26C104.207 20.26 105.992 20.7842 107.052 21.5851L108.86 19.1909C107.046 17.8211 104.49 17.26 101.444 17.26V20.26ZM107.068 21.5968C108.242 22.459 109.201 23.7248 109.909 25.4807L112.692 24.3593C111.815 22.1845 110.546 20.429 108.844 19.1792L107.068 21.5968ZM110.752 23.5239L109.52 24.0079L110.617 26.8001L111.849 26.3161L110.752 23.5239ZM121.255 24.48V22.98H119.755V24.48H121.255ZM122.575 24.48H124.075V22.98H122.575V24.48ZM122.575 50V51.5H124.075V50H122.575ZM121.255 50H119.755V51.5H121.255V50ZM121.255 25.98H122.575V22.98H121.255V25.98ZM121.075 24.48V50H124.075V24.48H121.075ZM122.575 48.5H121.255V51.5H122.575V48.5ZM122.755 50V24.48H119.755V50H122.755ZM132.683 50H131.183V51.5H132.683V50ZM135.059 27.164L133.873 26.2454L133.865 26.2559L135.059 27.164ZM151.603 28.22L152.566 29.3701L153.509 28.5797L152.918 27.4998L151.603 28.22ZM142.407 35.92L141.444 34.7699L138.279 37.42H142.407V35.92ZM151.779 35.92H153.279V34.42H151.779V35.92ZM151.779 37.24V38.74H153.279V37.24H151.779ZM138.755 37.24L137.794 36.088L134.614 38.74H138.755V37.24ZM149.887 27.956L150.847 29.108L151.938 28.1981L151.089 27.0593L149.887 27.956ZM139.239 25.844L139.662 27.283L139.681 27.2774L139.7 27.2712L139.239 25.844ZM136.467 27.56L135.406 26.4993L136.467 27.56ZM134.619 31.212L136.071 31.5884L136.072 31.582L134.619 31.212ZM134.003 50V51.5H135.503V50H134.003ZM134.183 50V37.24H131.183V50H134.183ZM134.183 37.24C134.183 32.7088 134.97 29.7585 136.253 28.072L133.865 26.2559C131.979 28.7348 131.183 32.5018 131.183 37.24H134.183ZM136.244 28.0826C137.476 26.4933 139.573 25.54 142.935 25.54V22.54C139.021 22.54 135.868 23.6693 133.873 26.2454L136.244 28.0826ZM142.935 25.54C146.853 25.54 149.113 26.7962 150.287 28.9402L152.918 27.4998C151.041 24.0705 147.523 22.54 142.935 22.54V25.54ZM150.64 27.0699L141.444 34.7699L143.37 37.0701L152.566 29.3701L150.64 27.0699ZM142.407 37.42H151.779V34.42H142.407V37.42ZM150.279 35.92V37.24H153.279V35.92H150.279ZM151.779 35.74H138.755V38.74H151.779V35.74ZM139.715 38.392L150.847 29.108L148.926 26.804L137.794 36.088L139.715 38.392ZM151.089 27.0593C149.387 24.777 146.486 23.86 142.935 23.86V26.86C146.071 26.86 147.805 27.6737 148.684 28.8527L151.089 27.0593ZM142.935 23.86C141.369 23.86 139.97 24.0309 138.777 24.4168L139.7 27.2712C140.502 27.0117 141.567 26.86 142.935 26.86V23.86ZM138.815 24.405C137.542 24.7795 136.406 25.4993 135.406 26.4993L137.527 28.6207C138.229 27.9194 138.941 27.4951 139.662 27.283L138.815 24.405ZM135.406 26.4993C134.329 27.5766 133.615 29.0742 133.165 30.842L136.072 31.582C136.444 30.1231 136.962 29.186 137.527 28.6207L135.406 26.4993ZM133.167 30.8356C132.713 32.5865 132.503 34.7337 132.503 37.24H135.503C135.503 34.877 135.703 33.0055 136.071 31.5884L133.167 30.8356ZM132.503 37.24V50H135.503V37.24H132.503ZM134.003 48.5H132.683V51.5H134.003V48.5ZM177.088 24.48H178.588V22.98H177.088V24.48ZM177.088 25.8V27.3H178.588V25.8H177.088ZM167.848 25.8V24.3H166.348V25.8H167.848ZM167.848 50V51.5H169.348V50H167.848ZM166.528 50H165.028V51.5H166.528V50ZM166.528 25.8H168.028V24.3H166.528V25.8ZM157.288 25.8H155.788V27.3H157.288V25.8ZM157.288 24.48V22.98H155.788V24.48H157.288ZM175.588 24.48V25.8H178.588V24.48H175.588ZM177.088 24.3H167.848V27.3H177.088V24.3ZM166.348 25.8V50H169.348V25.8H166.348ZM167.848 48.5H166.528V51.5H167.848V48.5ZM168.028 50V25.8H165.028V50H168.028ZM166.528 24.3H157.288V27.3H166.528V24.3ZM158.788 25.8V24.48H155.788V25.8H158.788ZM157.288 25.98H177.088V22.98H157.288V25.98ZM198.835 26.372L199.944 27.381L200.88 26.352L199.924 25.3415L198.835 26.372ZM197.955 27.34L196.905 28.4118L198.017 29.5008L199.064 28.349L197.955 27.34ZM186.075 34.116L185.165 35.3084L185.175 35.3161L185.185 35.3236L186.075 34.116ZM190.123 36.008L189.721 37.4533L189.728 37.4551L190.123 36.008ZM194.919 37.416L194.468 38.8468L194.484 38.8517L194.5 38.8563L194.919 37.416ZM199.011 39.748L197.964 40.8227L197.971 40.8299L197.979 40.8369L199.011 39.748ZM198.175 48.768L197.299 47.5503L198.175 48.768ZM186.295 49.956L185.897 51.4025L185.905 51.4044L186.295 49.956ZM182.951 48.152L181.841 47.143L180.915 48.1613L181.85 49.1711L182.951 48.152ZM183.831 47.184L184.847 46.081L183.736 45.0575L182.721 46.175L183.831 47.184ZM197.163 47.668L196.286 46.4507L196.28 46.4549L196.274 46.4592L197.163 47.668ZM197.691 40.408L198.639 39.2457L197.691 40.408ZM193.599 38.384L193.172 39.8222L193.188 39.8268L193.204 39.8311L193.599 38.384ZM188.803 36.976L188.352 38.4068L188.368 38.4117L188.384 38.4163L188.803 36.976ZM185.327 25.624L186.207 26.8381L186.212 26.8351L185.327 25.624ZM191.091 25.452C194.568 25.452 196.639 26.2331 197.745 27.4025L199.924 25.3415C197.979 23.2843 194.887 22.452 191.091 22.452V25.452ZM197.725 25.363L196.845 26.331L199.064 28.349L199.944 27.381L197.725 25.363ZM199.004 26.2682C197.195 24.4971 194.5 23.772 191.267 23.772V26.772C194.134 26.772 195.898 27.4256 196.905 28.4118L199.004 26.2682ZM191.267 23.772C188.82 23.772 186.708 24.2515 185.185 25.4618C183.597 26.7243 182.903 28.5749 182.903 30.728H185.903C185.903 29.2437 186.352 28.3664 187.052 27.8102C187.817 27.2018 189.137 26.772 191.267 26.772V23.772ZM182.903 30.728C182.903 32.6014 183.676 34.1726 185.165 35.3084L186.985 32.9236C186.243 32.358 185.903 31.6706 185.903 30.728H182.903ZM185.185 35.3236C186.471 36.2714 187.993 36.9734 189.721 37.4533L190.524 34.5627C189.084 34.1626 187.907 33.6033 186.964 32.9084L185.185 35.3236ZM189.728 37.4551C191.323 37.8901 192.903 38.354 194.468 38.8468L195.369 35.9852C193.766 35.4807 192.149 35.0059 190.517 34.5609L189.728 37.4551ZM194.5 38.8563C195.896 39.2626 197.039 39.9223 197.964 40.8227L200.057 38.6733C198.752 37.403 197.167 36.508 195.338 35.9757L194.5 38.8563ZM197.979 40.8369C198.755 41.5723 199.183 42.5516 199.183 43.928H202.183C202.183 41.8431 201.495 40.0357 200.042 38.6591L197.979 40.8369ZM199.183 43.928C199.183 45.4593 198.587 46.6236 197.299 47.5503L199.05 49.9857C201.106 48.5071 202.183 46.4447 202.183 43.928H199.183ZM197.299 47.5503C195.986 48.4946 193.927 49.072 190.915 49.072V52.072C194.238 52.072 197.019 51.4467 199.05 49.9857L197.299 47.5503ZM190.915 49.072C189.494 49.072 188.085 48.8846 186.684 48.5076L185.905 51.4044C187.555 51.8488 189.226 52.072 190.915 52.072V49.072ZM186.692 48.5095C185.354 48.1422 184.529 47.6486 184.051 47.1329L181.85 49.1711C182.839 50.2394 184.243 50.9484 185.897 51.4025L186.692 48.5095ZM184.06 49.161L184.94 48.193L182.721 46.175L181.841 47.143L184.06 49.161ZM182.814 48.287C184.702 50.027 187.445 50.752 190.739 50.752V47.752C187.813 47.752 185.951 47.0984 184.847 46.081L182.814 48.287ZM190.739 50.752C193.727 50.752 196.243 50.2047 198.051 48.8768L196.274 46.4592C195.207 47.2433 193.44 47.752 190.739 47.752V50.752ZM198.039 48.8853C199.774 47.6359 200.863 45.9962 200.863 43.972H197.863C197.863 44.7638 197.484 45.5881 196.286 46.4507L198.039 48.8853ZM200.863 43.972C200.863 42.0649 200.11 40.4463 198.639 39.2457L196.742 41.5703C197.5 42.1884 197.863 42.9458 197.863 43.972H200.863ZM198.639 39.2457C197.337 38.1839 195.776 37.4232 193.993 36.9369L193.204 39.8311C194.647 40.2248 195.815 40.8134 196.742 41.5703L198.639 39.2457ZM194.025 36.9458C192.438 36.4758 190.837 36.0057 189.222 35.5357L188.384 38.4163C189.995 38.8849 191.591 39.3536 193.172 39.8222L194.025 36.9458ZM189.253 35.5452C187.859 35.1064 186.708 34.4481 185.771 33.5847L183.738 35.7913C185.03 36.9813 186.578 37.8483 188.352 38.4068L189.253 35.5452ZM185.771 33.5847C184.998 32.8731 184.583 31.941 184.583 30.64H181.583C181.583 32.683 182.282 34.4496 183.738 35.7913L185.771 33.5847ZM184.583 30.64C184.583 28.7419 185.188 27.5775 186.207 26.8381L184.446 24.4099C182.473 25.8411 181.583 28.0208 181.583 30.64H184.583ZM186.212 26.8351C187.426 25.9473 189.018 25.452 191.091 25.452V22.452C188.528 22.452 186.277 23.0714 184.441 24.4129L186.212 26.8351Z" fill="#0F0701" fill-opacity="0.6"/>
<defs>
<filter id="filter0_i_2711_10726" x="14.4473" y="18.7598" width="186.235" height="35.8125" filterUnits="userSpaceOnUse" color-interpolation-filters="sRGB">
<feFlood flood-opacity="0" result="BackgroundImageFix"/>
<feBlend mode="normal" in="SourceGraphic" in2="BackgroundImageFix" result="shape"/>
<feColorMatrix in="SourceAlpha" type="matrix" values="0 0 0 0 0 0 0 0 0 0 0 0 0 0 0 0 0 0 127 0" result="hardAlpha"/>
<feOffset dy="4"/>
<feGaussianBlur stdDeviation="2"/>
<feComposite in2="hardAlpha" operator="arithmetic" k2="-1" k3="1"/>
<feColorMatrix type="matrix" values="0 0 0 0 0 0 0 0 0 0 0 0 0 0 0 0 0 0 0.25 0"/>
<feBlend mode="normal" in2="shape" result="effect1_innerShadow_2711_10726"/>
</filter>
</defs>
</svg>
