<svg xmlns="http://www.w3.org/2000/svg" xmlns:xlink="http://www.w3.org/1999/xlink" viewBox="0 0 326.3 55.82"><defs><style>.cls-1{fill:#ff703f;}</style><symbol id="New_Symbol" data-name="New Symbol" viewBox="0 0 326.3 55.82"><path class="cls-1" d="M13.15,13.89c-2.63,2.84-1.31,9.14,3.4,8.79H40.12V33.14H16.55c-3,.06-4.79,2.12-4.72,5.38,0,2.85,1.74,5,4.72,5H40.28V55.18H13c-8.49,0-13-4.46-13-13,.17-2.56-.61-8.5.94-10.73.88-1.84,3-2.58,4.7-3.36-1.61-1-3.42-1.82-4.38-3.67C-.21,22.35.54,16.2.37,13.68.38,5.29,4.53.61,13,.63H40.28V12.41H16.55A4.54,4.54,0,0,0,13.15,13.89Z"/><polygon class="cls-1" points="91.2 0.63 91.2 12.41 75.65 12.41 75.65 55.18 63.87 55.18 63.87 12.41 48.41 12.41 48.41 0.63 91.2 0.63"/><polygon class="cls-1" points="127.79 0.63 127.79 22.02 110.94 22.02 110.94 0.63 99.24 0.63 99.24 55.18 110.94 55.18 110.94 33.8 127.79 33.8 127.79 55.18 139.48 55.18 139.48 33.8 139.48 33.37 139.48 0.63 127.79 0.63"/><path d="M183.38,21.39V42.86h-10c-2.81,0-6,0-5.65-3.43V18.7c0-1.86.13-3.23,1.21-4.46s2.72-1.14,4.44-1.19h22.72V0H168.43c-4.35,0-7.74,1.19-10.07,3.52s-3.52,5.76-3.52,10.16V42.23c0,4.41,1.15,7.82,3.43,10.12s5.71,3.47,10.16,3.47h27.92V21.39Z"/><path d="M229.49,13.05V0H202.22V13.05h7.15V42.86h-7.15v13h27.27v-13h-7.08V13.05Z"/><path d="M251.83,13.05h24.38V0H248.3c-4.41,0-7.83,1.18-10.17,3.48-4.17,3.61-3.52,11.72-3.5,17.27-.12,9,5.44,14,14.31,13.68V55.82h12.95V34.43h14.32v-13H251.83a3.74,3.74,0,0,1-3-1.33C246.62,17.46,247.8,12.72,251.83,13.05Z"/><path d="M282.24,0V13.05h15.47V55.82h13V13.05H326.3V0Z"/></symbol></defs><g id="Layer_2" data-name="Layer 2"><g id="图层_1" data-name="图层 1"><use width="326.3" height="55.82" xlink:href="#New_Symbol"/></g></g></svg>