<svg xmlns="http://www.w3.org/2000/svg" viewBox="0 0 148.22 132.18"><defs><style>.cls-1{fill:#ffb603;}.cls-1,.cls-2{stroke:#000;stroke-linecap:round;stroke-linejoin:round;stroke-width:3px;}.cls-2{fill:#fff;}.cls-3{fill:#ff703f;}</style></defs><g id="Layer_2" data-name="Layer 2"><g id="图层_1" data-name="图层 1"><path class="cls-1" d="M146.72,63.82c0,10.44-5.09,16.82-13.83,20.72h0c-12.78,5.72-33.34,6.13-57.15,6.13-24.76,0-47.24-.45-60.82-6.84-8.42-4-13.41-10.19-13.41-20,0-25.67,34-62.32,74.11-62.32S146.72,38.15,146.72,63.82Z"/><path class="cls-2" d="M74.11,48.49c-30.25,0-34.6,42.05-34.63,66a16.22,16.22,0,0,0,16.24,16.2H92.35a16.21,16.21,0,0,0,16.24-16.16C108.62,90.58,104.36,48.49,74.11,48.49Z"/><rect class="cls-3" x="56.05" y="68.97" width="11.26" height="23.8" rx="5.63"/><rect class="cls-3" x="80.92" y="68.97" width="11.26" height="23.8" rx="5.63"/></g></g></svg>