<svg width="32" height="14" viewBox="0 0 32 14" fill="none" xmlns="http://www.w3.org/2000/svg">
<path d="M4.45075 11.2509C4.45075 11.808 4.22946 12.3422 3.83556 12.7361C3.44167 13.13 2.90743 13.3513 2.35038 13.3513C1.79332 13.3513 1.25908 13.13 0.865186 12.7361C0.47129 12.3422 0.25 11.808 0.25 11.2509C0.25 10.6938 0.47129 10.1596 0.865186 9.76571C1.25908 9.37181 1.79332 9.15052 2.35038 9.15052C2.90743 9.15052 3.44167 9.37181 3.83556 9.76571C4.22946 10.1596 4.45075 10.6938 4.45075 11.2509ZM4.45075 2.8494C4.45075 3.40645 4.22946 3.94069 3.83556 4.33459C3.44167 4.72848 2.90743 4.94977 2.35038 4.94977C1.79332 4.94977 1.25908 4.72848 0.865187 4.33459C0.47129 3.94069 0.25 3.40645 0.25 2.8494C0.25 2.29234 0.471291 1.7581 0.865187 1.36421C1.25908 0.970311 1.79332 0.749022 2.35038 0.749022C2.90743 0.749022 3.44167 0.970312 3.83556 1.36421C4.22946 1.75811 4.45075 2.29234 4.45075 2.8494ZM13.5543 11.2509C13.5543 11.808 13.333 12.3422 12.9391 12.7361C12.5452 13.13 12.0109 13.3513 11.4539 13.3513C10.8968 13.3513 10.3626 13.13 9.96868 12.7361C9.57479 12.3422 9.3535 11.808 9.3535 11.2509C9.3535 10.6938 9.57479 10.1596 9.96868 9.76571C10.3626 9.37181 10.8968 9.15052 11.4539 9.15052C12.0109 9.15052 12.5452 9.37181 12.9391 9.76571C13.333 10.1596 13.5543 10.6938 13.5543 11.2509ZM13.5543 2.8494C13.5543 3.40645 13.333 3.94069 12.9391 4.33459C12.5452 4.72848 12.0109 4.94977 11.4539 4.94977C10.8968 4.94977 10.3626 4.72848 9.96868 4.33459C9.57479 3.94069 9.3535 3.40645 9.3535 2.8494C9.3535 2.29234 9.57479 1.75811 9.96869 1.36421C10.3626 0.970312 10.8968 0.749023 11.4539 0.749023C12.0109 0.749023 12.5452 0.970312 12.9391 1.36421C13.333 1.75811 13.5543 2.29234 13.5543 2.8494ZM22.6465 11.2509C22.6465 11.808 22.4252 12.3422 22.0313 12.7361C21.6374 13.13 21.1032 13.3513 20.5461 13.3513C19.9891 13.3513 19.4548 13.13 19.0609 12.7361C18.667 12.3422 18.4457 11.808 18.4457 11.2509C18.4457 10.6938 18.667 10.1596 19.0609 9.76571C19.4548 9.37181 19.9891 9.15052 20.5461 9.15052C21.1032 9.15052 21.6374 9.37181 22.0313 9.76571C22.4252 10.1596 22.6465 10.6938 22.6465 11.2509ZM22.6465 2.8494C22.6465 3.40645 22.4252 3.94069 22.0313 4.33459C21.6374 4.72848 21.1032 4.94977 20.5461 4.94977C19.9891 4.94977 19.4548 4.72848 19.0609 4.33459C18.667 3.94069 18.4457 3.40645 18.4457 2.8494C18.4457 2.29234 18.667 1.75811 19.0609 1.36421C19.4548 0.970312 19.9891 0.749023 20.5461 0.749023C21.1032 0.749023 21.6374 0.970312 22.0313 1.36421C22.4252 1.75811 22.6465 2.29234 22.6465 2.8494ZM31.75 11.2509C31.75 11.5267 31.6957 11.7998 31.5901 12.0547C31.4846 12.3095 31.3299 12.5411 31.1348 12.7361C30.9398 12.9311 30.7082 13.0858 30.4534 13.1914C30.1986 13.2969 29.9254 13.3513 29.6496 13.3513C29.3738 13.3513 29.1007 13.2969 28.8458 13.1914C28.591 13.0858 28.3595 12.9311 28.1644 12.7361C27.9694 12.5411 27.8147 12.3095 27.7091 12.0547C27.6036 11.7998 27.5492 11.5267 27.5492 11.2509C27.5492 10.6938 27.7705 10.1596 28.1644 9.76571C28.5583 9.37181 29.0926 9.15052 29.6496 9.15053C30.2067 9.15053 30.7409 9.37181 31.1348 9.76571C31.5287 10.1596 31.75 10.6938 31.75 11.2509ZM31.75 2.8494C31.75 3.12522 31.6957 3.39835 31.5901 3.65318C31.4846 3.90801 31.3299 4.13955 31.1348 4.33459C30.9398 4.52963 30.7082 4.68434 30.4534 4.78989C30.1986 4.89545 29.9254 4.94977 29.6496 4.94977C29.3738 4.94977 29.1007 4.89545 28.8458 4.78989C28.591 4.68434 28.3595 4.52963 28.1644 4.33459C27.9694 4.13955 27.8147 3.90801 27.7091 3.65318C27.6036 3.39835 27.5493 3.12522 27.5493 2.8494C27.5493 2.29234 27.7705 1.75811 28.1644 1.36421C28.5583 0.970313 29.0926 0.749023 29.6496 0.749023C30.2067 0.749023 30.7409 0.970313 31.1348 1.36421C31.5287 1.75811 31.75 2.29234 31.75 2.8494Z" fill="#757575"/>
</svg>
