<svg width="21" height="21" viewBox="0 0 21 21" fill="none" xmlns="http://www.w3.org/2000/svg">
<path d="M14.485 14.5835L13.735 13.8335H7.73503L6.98503 14.5835V15.5002H14.485V14.5835ZM16.1517 13.8335V17.1668H5.31836V13.8335H5.40169L7.06836 12.1668H14.4017L16.1517 13.8335V13.8335ZM14.485 7.5835C14.485 9.66683 12.8184 11.3335 10.735 11.3335C8.65169 11.3335 6.98503 9.66683 6.98503 7.5835C6.98503 5.50016 8.65169 3.8335 10.735 3.8335C12.8184 3.8335 14.485 5.50016 14.485 7.5835V7.5835ZM12.8184 7.5835C12.8184 6.41683 11.9017 5.50016 10.735 5.50016C9.56836 5.50016 8.65169 6.41683 8.65169 7.5835C8.65169 8.75016 9.56836 9.66683 10.735 9.66683C11.9017 9.66683 12.8184 8.75016 12.8184 7.5835V7.5835Z" fill="#B9B9B9"/>
</svg>
