<svg width="21" height="21" viewBox="0 0 21 21" fill="none" xmlns="http://www.w3.org/2000/svg">
<path d="M19.3416 10.5502C19.3416 5.81021 15.5016 1.97021 10.7616 1.97021C6.02164 1.97021 2.18164 5.81021 2.18164 10.5502C2.18164 15.2902 6.02164 19.1302 10.7616 19.1302C13.0316 19.1302 15.0916 18.2502 16.6216 16.8102C16.7216 16.7802 16.8116 16.7302 16.8816 16.6402C16.9416 16.5802 16.9816 16.5102 17.0116 16.4302C18.4516 14.8902 19.3416 12.8302 19.3416 10.5502ZM10.0916 17.9602C10.0816 17.9402 10.0616 17.9302 10.0416 17.9102C9.12164 17.1102 8.37164 16.1602 7.81164 15.1102C8.56164 14.8002 9.36164 14.6102 10.1916 14.5502V17.9602C10.1616 17.9602 10.1216 17.9602 10.0916 17.9602ZM3.34164 11.1002H5.55164C5.61164 12.3002 5.87164 13.4702 6.31164 14.5702C5.89164 14.8102 5.50164 15.0802 5.12164 15.3902C4.11164 14.2202 3.46164 12.7302 3.34164 11.1002ZM5.18164 5.63021C5.55164 5.93021 5.94164 6.19021 6.34164 6.43021C5.88164 7.54021 5.61164 8.74021 5.55164 9.96021H3.35164C3.48164 8.31021 4.15164 6.81021 5.18164 5.63021ZM11.4116 3.14021C11.4316 3.16021 11.4416 3.18021 11.4716 3.20021C12.3616 3.97021 13.1016 4.89021 13.6516 5.90021C12.9116 6.20021 12.1316 6.38021 11.3316 6.44021V3.14021C11.3616 3.14021 11.3916 3.14021 11.4116 3.14021ZM18.1716 9.96021H15.9616C15.8916 8.74021 15.6216 7.55021 15.1616 6.43021C15.5716 6.20021 15.9616 5.93021 16.3316 5.63021C17.3716 6.81021 18.0416 8.31021 18.1716 9.96021ZM10.1916 9.96021H6.70164C6.76164 8.91021 7.00164 7.89021 7.38164 6.93021C8.27164 7.30021 9.22164 7.52021 10.1916 7.58021V9.96021ZM10.1916 11.1002V13.4002C9.20164 13.4602 8.24164 13.6902 7.34164 14.0602C6.98164 13.1202 6.76164 12.1202 6.70164 11.1002H10.1916ZM11.3316 11.1002H14.8116C14.7516 12.1302 14.5316 13.1302 14.1716 14.0702C13.2716 13.6902 12.3116 13.4702 11.3316 13.4002V11.1002ZM11.3316 9.96021V7.58021C12.3016 7.52021 13.2516 7.30021 14.1316 6.94021C14.5116 7.90021 14.7416 8.92021 14.8116 9.96021H11.3316ZM14.6816 5.39021C14.3416 4.77021 13.9516 4.18021 13.4916 3.63021C14.2316 3.92021 14.9116 4.33021 15.5116 4.83021C15.2416 5.04021 14.9616 5.23021 14.6816 5.39021ZM10.1916 3.13021V6.43021C9.39164 6.37021 8.60164 6.19021 7.87164 5.89021C8.42164 4.88021 9.15164 3.97021 10.0416 3.20021C10.0616 3.18021 10.0916 3.15021 10.1116 3.13021C10.1316 3.14021 10.1616 3.14021 10.1916 3.13021ZM6.84164 5.39021C6.55164 5.22021 6.28164 5.03021 6.01164 4.83021C6.61164 4.33021 7.29164 3.93021 8.02164 3.64021C7.57164 4.18021 7.17164 4.77021 6.84164 5.39021ZM6.79164 15.6202C7.13164 16.2702 7.54164 16.8902 8.01164 17.4602C7.25164 17.1602 6.55164 16.7302 5.93164 16.2102C6.21164 15.9902 6.50164 15.8002 6.79164 15.6202ZM11.3316 17.9702V14.5602C12.1516 14.6202 12.9516 14.8102 13.7016 15.1202C13.1416 16.1702 12.3916 17.1202 11.4716 17.9202C11.4516 17.9402 11.4416 17.9502 11.4216 17.9702C11.3916 17.9602 11.3616 17.9602 11.3316 17.9702ZM14.7216 15.6302C15.0116 15.8102 15.3016 16.0002 15.5716 16.2202C14.9616 16.7402 14.2616 17.1602 13.5016 17.4602C13.9716 16.9002 14.3816 16.2802 14.7216 15.6302ZM15.2116 14.5802C15.6516 13.4802 15.9116 12.3002 15.9716 11.1002H18.1816C18.0616 12.7402 17.4016 14.2302 16.3916 15.4102C16.0116 15.1002 15.6216 14.8202 15.2116 14.5802Z" fill="#B9B9B9"/>
</svg>
