<svg width="81" height="60" viewBox="0 0 81 60" fill="none" xmlns="http://www.w3.org/2000/svg">
<path d="M53.2402 40.4603C54.8574 39.1065 56.8914 38.3508 59.0002 38.3203C61.1064 38.3804 63.1342 39.1325 64.7702 40.4603C65.4202 40.9503 65.4902 41.1203 66.1402 41.6803C67.0902 42.5003 70.0802 45.0803 73.7002 45.0303C77.1202 44.9803 79.5802 42.5903 80.4302 41.6803" stroke="#EE862B" stroke-width="0.96" stroke-miterlimit="10"/>
<path d="M52.5098 44.9308C54.1314 43.5791 56.1689 42.827 58.2798 42.8008C60.3674 42.8696 62.3756 43.6174 63.9998 44.9308C64.6598 45.4208 64.7298 45.5908 65.3798 46.1508C66.3798 46.9708 69.3198 49.5608 72.9298 49.5108C74.2173 49.4205 75.4744 49.0773 76.6292 48.5007C77.784 47.9242 78.8138 47.1256 79.6598 46.1508" stroke="#EE862B" stroke-width="0.96" stroke-miterlimit="10"/>
<path d="M51.6699 49.4193C53.2897 48.0633 55.3277 47.3075 57.4399 47.2793C59.5466 47.3372 61.575 48.0895 63.2099 49.4193C63.8599 49.9093 63.9299 50.0693 64.5799 50.6293C65.5799 51.4493 68.5799 54.0393 72.1399 53.9893C74.7397 53.8048 77.1601 52.5964 78.8699 50.6293" stroke="#EE862B" stroke-width="0.96" stroke-miterlimit="10"/>
<g filter="url(#filter0_i_2426_10565)">
<path d="M30 60C46.5685 60 60 46.5685 60 30C60 13.4315 46.5685 0 30 0C13.4315 0 0 13.4315 0 30C0 46.5685 13.4315 60 30 60Z" fill="#EE862B"/>
</g>
<path d="M30.0002 2.69922C35.3997 2.69922 40.6778 4.30034 45.1673 7.3001C49.6567 10.2999 53.1559 14.5635 55.2221 19.552C57.2884 24.5404 57.829 30.0295 56.7757 35.3252C55.7223 40.6209 53.1222 45.4853 49.3042 49.3032C45.4863 53.1212 40.6219 55.7213 35.3262 56.7747C30.0305 57.828 24.5414 57.2874 19.553 55.2211C14.5645 53.1549 10.3009 49.6557 7.3011 45.1663C4.30134 40.6768 2.70022 35.3986 2.70022 29.9992C2.7108 22.7621 5.59044 15.8243 10.7079 10.7069C15.8253 5.58944 22.7631 2.7098 30.0002 2.69922ZM30.0002 1.69922C24.4126 1.69922 18.9504 3.35564 14.304 6.45912C9.65751 9.56261 6.03533 13.9739 3.89523 19.1354C1.75513 24.2969 1.19316 29.977 2.28034 35.4578C3.36752 40.9386 6.05505 45.9741 10.0033 49.9279C13.9515 53.8817 18.9832 56.5764 24.4625 57.6713C29.9418 58.7663 35.6226 58.2123 40.7872 56.0795C45.9517 53.9467 50.3681 50.3308 53.4781 45.6887C56.5882 41.0467 58.2523 35.5868 58.2602 29.9992C58.2602 26.2881 57.5293 22.6132 56.1091 19.1846C54.6889 15.7559 52.6072 12.6406 49.9831 10.0164C47.3589 7.3922 44.2435 5.31058 40.8148 3.89038C37.3862 2.47019 33.7114 1.73922 30.0002 1.73922V1.69922Z" fill="white"/>
<path d="M51.6697 31.9297L49.1797 34.6297M54.1398 34.6591L51.3398 31.6191M51.5898 31.3007C51.3098 31.8507 50.5098 31.7507 49.8498 31.4807C49.0398 31.1507 48.2098 30.4807 48.6698 29.7207C49.1298 28.9607 49.9898 29.1107 50.6698 29.5807C51.3498 30.0507 51.8698 30.7507 51.5898 31.3007ZM51.7502 31.3007C52.0402 31.8507 52.8402 31.7507 53.5002 31.4807C54.3102 31.1507 55.1302 30.4807 54.6702 29.7207C54.2102 28.9607 53.3502 29.1107 52.6702 29.5807C51.9902 30.0507 51.4702 30.7507 51.7502 31.3007Z" stroke="white" stroke-width="0.96" stroke-miterlimit="10"/>
<path d="M8.85035 31.9297L6.36035 34.6297M11.3195 34.6591L8.51953 31.6191M8.75976 31.3007C8.47976 31.8507 7.67976 31.7507 7.01976 31.4807C6.35976 31.2107 5.37976 30.4807 5.84976 29.7207C6.31976 28.9607 7.16976 29.1107 7.84976 29.5807C8.52976 30.0507 9.04976 30.7507 8.75976 31.3007ZM8.92989 31.3007C9.20989 31.8507 10.0099 31.7507 10.6699 31.4807C11.4799 31.1507 12.3099 30.4807 11.8499 29.7207C11.3899 28.9607 10.5299 29.1107 9.84989 29.5807C9.16989 30.0507 8.64989 30.7507 8.92989 31.3007Z" stroke="white" stroke-width="0.96" stroke-miterlimit="10"/>
<path d="M16.7304 12.0662H18.0747L20.7631 16.5911H20.8767L23.5652 12.0662H24.9094L21.4068 17.765V21.7598H20.233V17.765L16.7304 12.0662ZM34.1509 16.913C34.1509 17.9354 33.9663 18.8189 33.5971 19.5636C33.228 20.3083 32.7215 20.8825 32.0778 21.2864C31.4341 21.6903 30.6989 21.8923 29.8721 21.8923C29.0454 21.8923 28.3102 21.6903 27.6665 21.2864C27.0227 20.8825 26.5163 20.3083 26.1471 19.5636C25.7779 18.8189 25.5933 17.9354 25.5933 16.913C25.5933 15.8906 25.7779 15.0071 26.1471 14.2624C26.5163 13.5177 27.0227 12.9434 27.6665 12.5395C28.3102 12.1356 29.0454 11.9337 29.8721 11.9337C30.6989 11.9337 31.4341 12.1356 32.0778 12.5395C32.7215 12.9434 33.228 13.5177 33.5971 14.2624C33.9663 15.0071 34.1509 15.8906 34.1509 16.913ZM33.015 16.913C33.015 16.0736 32.8745 15.3652 32.5937 14.7878C32.316 14.2103 31.9389 13.7733 31.4625 13.4767C30.9892 13.1801 30.459 13.0318 29.8721 13.0318C29.2852 13.0318 28.7535 13.1801 28.277 13.4767C27.8037 13.7733 27.4266 14.2103 27.1458 14.7878C26.8681 15.3652 26.7293 16.0736 26.7293 16.913C26.7293 17.7523 26.8681 18.4607 27.1458 19.0382C27.4266 19.6156 27.8037 20.0527 28.277 20.3493C28.7535 20.6459 29.2852 20.7942 29.8721 20.7942C30.459 20.7942 30.9892 20.6459 31.4625 20.3493C31.9389 20.0527 32.316 19.6156 32.5937 19.0382C32.8745 18.4607 33.015 17.7523 33.015 16.913ZM42.4861 12.0662H43.6599V18.4844C43.6599 19.147 43.5037 19.7387 43.1913 20.2593C42.8821 20.7768 42.445 21.1855 41.8802 21.4852C41.3154 21.7819 40.6527 21.9302 39.8923 21.9302C39.1318 21.9302 38.4692 21.7819 37.9043 21.4852C37.3395 21.1855 36.9009 20.7768 36.5885 20.2593C36.2793 19.7387 36.1247 19.147 36.1247 18.4844V12.0662H37.2985V18.3897C37.2985 18.8631 37.4026 19.2843 37.6109 19.6535C37.8191 20.0195 38.1158 20.3083 38.5007 20.5197C38.8888 20.7279 39.3527 20.8321 39.8923 20.8321C40.4319 20.8321 40.8957 20.7279 41.2838 20.5197C41.672 20.3083 41.9686 20.0195 42.1737 19.6535C42.3819 19.2843 42.4861 18.8631 42.4861 18.3897V12.0662Z" fill="white"/>
<path d="M23.3528 31.9638C23.3528 32.9861 23.1682 33.8697 22.799 34.6143C22.4298 35.359 21.9234 35.9333 21.2796 36.3372C20.6359 36.7411 19.9007 36.9431 19.074 36.9431C18.2472 36.9431 17.512 36.7411 16.8683 36.3372C16.2246 35.9333 15.7181 35.359 15.349 34.6143C14.9798 33.8697 14.7952 32.9861 14.7952 31.9638C14.7952 30.9414 14.9798 30.0579 15.349 29.3132C15.7181 28.5685 16.2246 27.9942 16.8683 27.5903C17.512 27.1864 18.2472 26.9845 19.074 26.9845C19.9007 26.9845 20.6359 27.1864 21.2796 27.5903C21.9234 27.9942 22.4298 28.5685 22.799 29.3132C23.1682 30.0579 23.3528 30.9414 23.3528 31.9638ZM22.2168 31.9638C22.2168 31.1244 22.0764 30.416 21.7956 29.8386C21.5179 29.2611 21.1408 28.8241 20.6643 28.5275C20.191 28.2309 19.6609 28.0826 19.074 28.0826C18.4871 28.0826 17.9554 28.2309 17.4789 28.5275C17.0056 28.8241 16.6285 29.2611 16.3477 29.8386C16.07 30.416 15.9311 31.1244 15.9311 31.9638C15.9311 32.8031 16.07 33.5115 16.3477 34.089C16.6285 34.6664 17.0056 35.1034 17.4789 35.4001C17.9554 35.6967 18.4871 35.845 19.074 35.845C19.6609 35.845 20.191 35.6967 20.6643 35.4001C21.1408 35.1034 21.5179 34.6664 21.7956 34.089C22.0764 33.5115 22.2168 32.8031 22.2168 31.9638ZM27.0873 36.8105L24.4367 27.117H25.6294L27.6552 35.0119H27.7499L29.8136 27.117H31.1389L33.2025 35.0119H33.2972L35.323 27.117H36.5158L33.8652 36.8105H32.6535L30.5141 29.086H30.4383L28.2989 36.8105H27.0873ZM45.665 27.117V36.8105H44.529L39.2468 29.1996H39.1521V36.8105H37.9783V27.117H39.1143L44.4154 34.7469H44.5101V27.117H45.665Z" fill="white"/>
<path d="M27.3477 42.1658V51.8594H26.1738V42.1658H27.3477ZM29.1711 43.2071V42.1658H36.4413V43.2071H33.3931V51.8594H32.2193V43.2071H29.1711Z" fill="white"/>
<defs>
<filter id="filter0_i_2426_10565" x="0" y="0" width="60" height="62" filterUnits="userSpaceOnUse" color-interpolation-filters="sRGB">
<feFlood flood-opacity="0" result="BackgroundImageFix"/>
<feBlend mode="normal" in="SourceGraphic" in2="BackgroundImageFix" result="shape"/>
<feColorMatrix in="SourceAlpha" type="matrix" values="0 0 0 0 0 0 0 0 0 0 0 0 0 0 0 0 0 0 127 0" result="hardAlpha"/>
<feOffset dy="2"/>
<feGaussianBlur stdDeviation="1"/>
<feComposite in2="hardAlpha" operator="arithmetic" k2="-1" k3="1"/>
<feColorMatrix type="matrix" values="0 0 0 0 0 0 0 0 0 0 0 0 0 0 0 0 0 0 0.25 0"/>
<feBlend mode="normal" in2="shape" result="effect1_innerShadow_2426_10565"/>
</filter>
</defs>
</svg>
