<svg width="17" height="18" viewBox="0 0 17 18" fill="none" xmlns="http://www.w3.org/2000/svg">
<path d="M5.19336 1.37519H2.69336C1.31266 1.37519 0.193359 2.49448 0.193359 3.87519V6.37519C0.193359 7.75589 1.31266 8.87519 2.69336 8.87519H5.19336C6.57406 8.87519 7.69336 7.75589 7.69336 6.37519V3.87519C7.69336 2.49448 6.57406 1.37519 5.19336 1.37519ZM2.69336 2.62519H5.19336C5.88371 2.62519 6.44336 3.18483 6.44336 3.87519V6.37519C6.44336 7.06554 5.88371 7.62518 5.19336 7.62518H2.69336C2.00301 7.62518 1.44336 7.06554 1.44336 6.37519V3.87519C1.44336 3.18483 2.00301 2.62519 2.69336 2.62519ZM5.21289 10.1252H2.71289C1.33219 10.1252 0.212891 11.2445 0.212891 12.6252V15.1252C0.212891 16.5059 1.33219 17.6252 2.71289 17.6252H5.21289C6.59359 17.6252 7.71289 16.5059 7.71289 15.1252V12.6252C7.71289 11.2445 6.59359 10.1252 5.21289 10.1252ZM2.71289 11.3752H5.21289C5.90324 11.3752 6.46289 11.9348 6.46289 12.6252V15.1252C6.46289 15.8155 5.90324 16.3752 5.21289 16.3752H2.71289C2.02254 16.3752 1.46289 15.8155 1.46289 15.1252V12.6252C1.46289 11.9348 2.02254 11.3752 2.71289 11.3752ZM16.2289 3.35741L14.4611 1.58964C13.4848 0.61335 11.9019 0.61335 10.9256 1.58964L9.15781 3.35741C8.18152 4.33372 8.18152 5.91665 9.15781 6.89296L10.9256 8.66073C11.9019 9.63702 13.4848 9.63702 14.4611 8.66073L16.2289 6.89296C17.2052 5.91665 17.2052 4.33372 16.2289 3.35741ZM13.5772 2.47353L15.345 4.2413C15.8332 4.72946 15.8332 5.52091 15.345 6.00907L13.5772 7.77684C13.0891 8.26499 12.2976 8.26499 11.8095 7.77684L10.0417 6.00907C9.55355 5.52091 9.55355 4.72946 10.0417 4.2413L11.8095 2.47353C12.2976 1.98538 13.0891 1.98538 13.5772 2.47353ZM13.9629 10.1252H11.4629C10.0822 10.1252 8.96289 11.2445 8.96289 12.6252V15.1252C8.96289 16.5059 10.0822 17.6252 11.4629 17.6252H13.9629C15.3436 17.6252 16.4629 16.5059 16.4629 15.1252V12.6252C16.4629 11.2445 15.3436 10.1252 13.9629 10.1252ZM11.4629 11.3752H13.9629C14.6532 11.3752 15.2129 11.9348 15.2129 12.6252V15.1252C15.2129 15.8155 14.6532 16.3752 13.9629 16.3752H11.4629C10.7725 16.3752 10.2129 15.8155 10.2129 15.1252V12.6252C10.2129 11.9348 10.7725 11.3752 11.4629 11.3752Z" fill="#B9B9B9"/>
</svg>
