<svg width="36" height="27" viewBox="0 0 36 27" fill="none" xmlns="http://www.w3.org/2000/svg">
<path d="M31.049 2.21103V16.8664C31.0508 17.094 30.9862 17.3171 30.8633 17.5085C30.7773 17.4743 30.6852 17.4578 30.5927 17.4601H5.62321C5.53039 17.4591 5.43835 17.4769 5.35263 17.5126C5.23314 17.3198 5.17018 17.0973 5.1709 16.8705V2.21103C5.1709 1.88972 5.29855 1.58156 5.52575 1.35436C5.75296 1.12715 6.06111 0.999512 6.38243 0.999512H29.8375C30.1588 0.999512 30.467 1.12715 30.6942 1.35436C30.9214 1.58156 31.049 1.88972 31.049 2.21103V2.21103Z" stroke="white" stroke-miterlimit="10"/>
<path d="M28.7967 2.51979C28.917 2.52086 29.0321 2.56941 29.1168 2.65487C29.2015 2.74034 29.249 2.8558 29.249 2.97613V15.9313H6.96912V3.00844C6.96528 2.94598 6.97421 2.8834 6.99536 2.82451C7.01652 2.76563 7.04945 2.71167 7.09216 2.66594C7.13487 2.6202 7.18645 2.58366 7.24376 2.55853C7.30106 2.5334 7.36289 2.52022 7.42546 2.51979H28.7967ZM28.7967 2.31787H7.42546C7.33799 2.31786 7.25139 2.33528 7.17073 2.36911C7.09006 2.40295 7.01695 2.45252 6.95567 2.51494C6.89438 2.57735 6.84615 2.65135 6.81379 2.73262C6.78143 2.81389 6.76559 2.90079 6.7672 2.98825V16.1333H29.4509V2.98825C29.4509 2.81436 29.3821 2.64754 29.2596 2.52421C29.137 2.40088 28.9706 2.33105 28.7967 2.32999V2.31787Z" fill="white"/>
<path d="M1.41992 25.0552C1.76319 25.8306 2.42952 26.0002 3.38663 26.0002H32.7378C33.1416 26.0002 34.2279 26.0002 34.7328 25.0552" stroke="white" stroke-linecap="round" stroke-linejoin="round"/>
<path d="M34.3812 25.2333H1.77506C1.69722 25.2355 1.62016 25.2172 1.55163 25.1802C1.48309 25.1432 1.42548 25.0889 1.38458 25.0226C1.34367 24.9563 1.3209 24.8805 1.31856 24.8026C1.31622 24.7248 1.33438 24.6477 1.37122 24.5791L4.95733 17.8632C5.0453 17.7022 5.18884 17.5788 5.36117 17.5159C5.44689 17.4803 5.53893 17.4624 5.63174 17.4634H30.5931C30.686 17.4624 30.778 17.4803 30.8637 17.5159C31.0381 17.5774 31.1825 17.703 31.2676 17.8673L34.7769 24.5912C34.8106 24.6588 34.8264 24.7338 34.823 24.8092C34.8196 24.8846 34.797 24.9579 34.7574 25.0222C34.7178 25.0864 34.6625 25.1395 34.5966 25.1765C34.5308 25.2134 34.4567 25.233 34.3812 25.2333Z" stroke="white" stroke-miterlimit="10"/>
<path d="M22.6012 21.3007C22.6012 21.3007 22.6294 21.3007 22.6335 21.333L23.4735 24.3012C23.4777 24.3086 23.48 24.3169 23.48 24.3255C23.48 24.334 23.4777 24.3423 23.4735 24.3497C23.47 24.3523 23.4657 24.3537 23.4614 24.3537C23.457 24.3537 23.4527 24.3523 23.4492 24.3497H12.8525C12.8446 24.3525 12.8361 24.3525 12.8282 24.3497C12.8246 24.3421 12.8228 24.3338 12.8228 24.3255C12.8228 24.3171 12.8246 24.3088 12.8282 24.3012L13.5107 21.329C13.5117 21.32 13.516 21.3118 13.5227 21.3058C13.5294 21.2999 13.5381 21.2966 13.5471 21.2966H22.6093M22.6093 21.0947H13.539C13.4845 21.0947 13.4318 21.1136 13.3898 21.1482C13.3478 21.1829 13.3191 21.2311 13.3088 21.2845L12.6223 24.2528C12.6133 24.2886 12.6123 24.3261 12.6195 24.3624C12.6267 24.3987 12.6419 24.4329 12.6639 24.4626C12.6859 24.4924 12.7142 24.5169 12.7468 24.5343C12.7794 24.5518 12.8155 24.5618 12.8525 24.5637H23.4371C23.4754 24.5623 23.5129 24.5521 23.5466 24.5339C23.5803 24.5157 23.6094 24.49 23.6317 24.4588C23.6539 24.4276 23.6687 24.3917 23.6749 24.3539C23.6811 24.316 23.6785 24.2773 23.6673 24.2406L22.8273 21.2724C22.8141 21.2222 22.7849 21.1777 22.7441 21.1456C22.7033 21.1135 22.6531 21.0957 22.6012 21.0947H22.6093Z" fill="white"/>
<path d="M29.0865 18.2691C29.1005 18.269 29.1142 18.2732 29.1258 18.2812C29.1373 18.2891 29.1462 18.3004 29.1511 18.3135L29.2197 18.4912L29.2399 18.5437V18.5962L29.3369 18.8345L29.3611 18.8991L29.3853 18.9596L29.5065 19.2706L29.563 19.4119L29.6801 19.7068L29.7407 19.8683L29.8861 20.2317L29.9547 20.4094L30.0597 20.6679V20.7042L5.95852 20.6921V20.6598L6.05948 20.4014L6.12813 20.2237L6.27352 19.8602L6.33409 19.6987L6.45121 19.4039L6.50775 19.2625L6.6289 18.9516L6.65717 18.887V18.8264L6.75409 18.5881V18.5356L6.77428 18.4791L6.84293 18.3054C6.84788 18.2923 6.85672 18.281 6.86827 18.2731C6.87983 18.2651 6.89353 18.2609 6.90755 18.261H29.0421M29.0421 18.0591H6.95197C6.89821 18.0597 6.84584 18.0762 6.80133 18.1063C6.75682 18.1365 6.72214 18.179 6.70159 18.2287L6.63294 18.4064L6.61274 18.4589L6.58851 18.5114L6.49563 18.7537L6.4714 18.8143L6.44717 18.8789L6.32198 19.1898L6.26948 19.3312L6.15237 19.626L6.08775 19.7835L5.94641 20.151L5.87372 20.3287L5.77276 20.5871C5.7564 20.6208 5.74885 20.6581 5.75079 20.6956C5.75273 20.733 5.7641 20.7693 5.78385 20.8011C5.8036 20.833 5.83108 20.8593 5.86374 20.8777C5.8964 20.896 5.93317 20.9058 5.97064 20.9062H30.0678C30.1053 20.9058 30.1421 20.896 30.1747 20.8777C30.2074 20.8593 30.2349 20.833 30.2546 20.8011C30.2744 20.7693 30.2857 20.733 30.2877 20.6956C30.2896 20.6581 30.282 20.6208 30.2657 20.5871L30.1647 20.3287L30.0961 20.151L29.9507 19.7835L29.8861 19.626L29.773 19.3312L29.7165 19.1898L29.5913 18.8789L29.5671 18.8143L29.5428 18.7537L29.4499 18.5114V18.4589L29.4257 18.4064L29.3571 18.2287C29.3365 18.179 29.3018 18.1365 29.2573 18.1063C29.2128 18.0762 29.1604 18.0597 29.1067 18.0591H29.0421Z" fill="white"/>
<path d="M29.4498 18.5254H6.58838L6.61261 18.4729L6.6328 18.4204H29.4054L29.4296 18.4729L29.4498 18.5254Z" fill="white"/>
<path d="M29.5914 18.8942H6.44727L6.4715 18.8296L6.49573 18.769H29.5429L29.5672 18.8296L29.5914 18.8942Z" fill="white"/>
<path d="M29.7731 19.345H6.26953L6.32203 19.2036H29.7165L29.7731 19.345Z" fill="white"/>
<path d="M29.9508 19.7986H6.08789L6.15251 19.6411H29.8862L29.9508 19.7986Z" fill="white"/>
<path d="M30.165 20.3413H5.87402L5.94671 20.1636H30.0964L30.165 20.3413Z" fill="white"/>
</svg>
