<svg width="58" height="29" viewBox="0 0 58 29" fill="none" xmlns="http://www.w3.org/2000/svg">
<path d="M20.5456 10.264C19.6216 10.264 18.8656 10.468 18.2656 10.888C17.6176 11.32 17.3056 11.92 17.3056 12.676C17.3056 13.432 17.6296 14.008 18.2896 14.404C18.5416 14.548 19.2016 14.788 20.2576 15.124C21.2056 15.412 21.7576 15.604 21.9256 15.688C22.4536 15.952 22.7296 16.312 22.7296 16.768C22.7296 17.128 22.5376 17.404 22.1776 17.62C21.8176 17.824 21.3136 17.932 20.6896 17.932C19.9816 17.932 19.4656 17.8 19.1296 17.56C18.7576 17.284 18.5296 16.816 18.4336 16.168H17.0416C17.1016 17.26 17.4976 18.052 18.2176 18.556C18.8056 18.964 19.6336 19.168 20.6896 19.168C21.7816 19.168 22.6336 18.94 23.2336 18.508C23.8336 18.064 24.1336 17.452 24.1336 16.684C24.1336 15.892 23.7616 15.28 23.0176 14.836C22.6816 14.644 21.9376 14.356 20.7736 13.996C19.9816 13.744 19.4896 13.564 19.3096 13.468C18.9016 13.252 18.7096 12.952 18.7096 12.592C18.7096 12.184 18.8776 11.884 19.2376 11.704C19.5256 11.548 19.9336 11.476 20.4736 11.476C21.0976 11.476 21.5776 11.584 21.8896 11.824C22.2016 12.052 22.4296 12.436 22.5496 12.964H23.9416C23.8576 12.028 23.5096 11.332 22.9096 10.888C22.3456 10.468 21.5536 10.264 20.5456 10.264ZM26.058 10.432V19H29.994C30.906 19 31.626 18.832 32.13 18.496C32.718 18.088 33.018 17.452 33.018 16.588C33.018 16.012 32.874 15.544 32.598 15.208C32.31 14.86 31.89 14.632 31.326 14.524C31.758 14.356 32.082 14.128 32.31 13.816C32.538 13.48 32.658 13.072 32.658 12.592C32.658 11.944 32.43 11.428 31.986 11.044C31.506 10.636 30.834 10.432 29.982 10.432H26.058ZM27.462 11.584H29.634C30.21 11.584 30.618 11.68 30.882 11.872C31.122 12.052 31.254 12.352 31.254 12.76C31.254 13.204 31.122 13.528 30.882 13.732C30.63 13.924 30.21 14.032 29.61 14.032H27.462V11.584ZM27.462 15.184H29.826C30.45 15.184 30.906 15.292 31.194 15.508C31.47 15.724 31.614 16.072 31.614 16.564C31.614 17.044 31.422 17.38 31.038 17.596C30.738 17.764 30.318 17.848 29.79 17.848H27.462V15.184ZM34.4032 10.432V11.632H37.2112V19H38.6152V11.632H41.4232V10.432H34.4032Z" fill="url(#paint0_linear_3723_12360)"/>
<rect x="1.18164" y="0.5" width="56" height="28" rx="14" stroke="url(#paint1_linear_3723_12360)"/>
<defs>
<linearGradient id="paint0_linear_3723_12360" x1="42.2251" y1="12" x2="15.3569" y2="12" gradientUnits="userSpaceOnUse">
<stop stop-color="#EE862B"/>
<stop offset="0.697917" stop-color="#F5A636"/>
<stop offset="1" stop-color="#FFD747"/>
</linearGradient>
<linearGradient id="paint1_linear_3723_12360" x1="58.9208" y1="10.2353" x2="-2.33874" y2="10.2353" gradientUnits="userSpaceOnUse">
<stop stop-color="#EE862B"/>
<stop offset="0.697917" stop-color="#F5A636"/>
<stop offset="1" stop-color="#FFD747"/>
</linearGradient>
</defs>
</svg>
