<svg width="296" height="422" viewBox="0 0 296 422" fill="none" xmlns="http://www.w3.org/2000/svg">
<path d="M295.5 13.9195V407.6C291.878 407.6 288.404 409.037 285.841 411.596C283.278 414.156 281.835 417.627 281.83 421.25H275.58C275.501 418.832 274.485 416.54 272.746 414.857C271.008 413.175 268.684 412.235 266.265 412.235C263.846 412.235 261.522 413.175 259.784 414.857C258.045 416.54 257.029 418.832 256.95 421.25H251.79C251.711 418.832 250.695 416.54 248.956 414.857C247.218 413.175 244.894 412.235 242.475 412.235C240.056 412.235 237.732 413.175 235.994 414.857C234.255 416.54 233.239 418.832 233.16 421.25H228C227.921 418.832 226.905 416.54 225.166 414.857C223.428 413.175 221.104 412.235 218.685 412.235C216.266 412.235 213.942 413.175 212.204 414.857C210.465 416.54 209.449 418.832 209.37 421.25H204.21C204.131 418.832 203.115 416.54 201.376 414.857C199.638 413.175 197.314 412.235 194.895 412.235C192.476 412.235 190.152 413.175 188.414 414.857C186.675 416.54 185.659 418.832 185.58 421.25H180.42C180.341 418.832 179.325 416.54 177.586 414.857C175.848 413.175 173.524 412.235 171.105 412.235C168.686 412.235 166.362 413.175 164.624 414.857C162.885 416.54 161.869 418.832 161.79 421.25H156.63C156.551 418.832 155.535 416.54 153.796 414.857C152.058 413.175 149.734 412.235 147.315 412.235C144.896 412.235 142.572 413.175 140.834 414.857C139.095 416.54 138.079 418.832 138 421.25H132.84C132.761 418.832 131.745 416.54 130.006 414.857C128.268 413.175 125.944 412.235 123.525 412.235C121.106 412.235 118.782 413.175 117.044 414.857C115.305 416.54 114.289 418.832 114.21 421.25H109.05C108.971 418.832 107.955 416.54 106.216 414.857C104.478 413.175 102.154 412.235 99.735 412.235C97.316 412.235 94.9918 413.175 93.2536 414.857C91.5153 416.54 90.4992 418.832 90.42 421.25H85.26C85.1808 418.832 84.1647 416.54 82.4264 414.857C80.6882 413.175 78.364 412.235 75.945 412.235C73.526 412.235 71.2018 413.175 69.4636 414.857C67.7253 416.54 66.7092 418.832 66.63 421.25H61.5C61.4208 418.832 60.4047 416.54 58.6664 414.857C56.9282 413.175 54.604 412.235 52.185 412.235C49.766 412.235 47.4418 413.175 45.7036 414.857C43.9653 416.54 42.9492 418.832 42.87 421.25H37.68C37.6008 418.832 36.5847 416.54 34.8464 414.857C33.1082 413.175 30.784 412.235 28.365 412.235C25.946 412.235 23.6218 413.175 21.8836 414.857C20.1453 416.54 19.1292 418.832 19.05 421.25H14.17C14.1713 419.453 13.8187 417.675 13.1323 416.015C12.4459 414.355 11.4392 412.847 10.1697 411.577C8.90018 410.306 7.39277 409.299 5.73359 408.611C4.07442 407.923 2.29601 407.57 0.5 407.57L0.5 13.8795C4.11859 13.8795 7.58956 12.4448 10.152 9.88981C12.7145 7.33484 14.1594 3.86809 14.17 0.249512L19.05 0.249512C19.0487 1.47296 19.2885 2.68467 19.7558 3.81537C20.2231 4.94606 20.9087 5.97357 21.7733 6.83914C22.6379 7.70471 23.6647 8.39138 24.7949 8.85987C25.9251 9.32837 27.1366 9.56951 28.36 9.56951C30.8318 9.56951 33.2024 8.58759 34.9502 6.83975C36.6981 5.09191 37.68 2.72133 37.68 0.249512L42.84 0.249512C42.8387 1.47296 43.0785 2.68467 43.5458 3.81537C44.0131 4.94606 44.6987 5.97357 45.5633 6.83914C46.4279 7.70471 47.4547 8.39138 48.5849 8.85987C49.7151 9.32837 50.9266 9.56951 52.15 9.56951C53.3764 9.57346 54.5916 9.3353 55.7258 8.8687C56.86 8.40209 57.891 7.71621 58.7596 6.85038C59.6283 5.98454 60.3174 4.95578 60.7877 3.82306C61.2579 2.69035 61.5 1.47596 61.5 0.249512L66.66 0.249512C66.6587 1.47296 66.8985 2.68467 67.3658 3.81537C67.8331 4.94606 68.5187 5.97357 69.3833 6.83914C70.2479 7.70471 71.2747 8.39138 72.4049 8.85987C73.5351 9.32837 74.7466 9.56951 75.97 9.56951C78.4366 9.56157 80.7995 8.57614 82.5408 6.82916C84.2822 5.08218 85.26 2.71614 85.26 0.249512L90.42 0.249512C90.4187 1.47296 90.6585 2.68467 91.1258 3.81537C91.5931 4.94606 92.2786 5.97357 93.1433 6.83914C94.0079 7.70471 95.0347 8.39138 96.1649 8.85987C97.2951 9.32837 98.5066 9.56951 99.73 9.56951C102.202 9.56951 104.572 8.58759 106.32 6.83975C108.068 5.09191 109.05 2.72133 109.05 0.249512H114.21C114.21 2.71614 115.188 5.08218 116.929 6.82916C118.671 8.57614 121.033 9.56157 123.5 9.56951C124.726 9.57346 125.941 9.33524 127.074 8.86851C128.208 8.40178 129.238 7.71574 130.106 6.84978C130.974 5.98381 131.662 4.95497 132.131 3.82231C132.6 2.68965 132.841 1.47549 132.84 0.249512L138 0.249512C138 2.72133 138.982 5.09191 140.73 6.83975C142.478 8.58759 144.848 9.56951 147.32 9.56951C148.543 9.56951 149.755 9.32837 150.885 8.85987C152.015 8.39138 153.042 7.70471 153.907 6.83914C154.771 5.97357 155.457 4.94606 155.924 3.81537C156.391 2.68467 156.631 1.47296 156.63 0.249512L161.79 0.249512C161.79 2.72133 162.772 5.09191 164.52 6.83975C166.268 8.58759 168.638 9.56951 171.11 9.56951C172.333 9.56951 173.545 9.32837 174.675 8.85987C175.805 8.39138 176.832 7.70471 177.697 6.83914C178.561 5.97357 179.247 4.94606 179.714 3.81537C180.181 2.68467 180.421 1.47296 180.42 0.249512L185.58 0.249512C185.58 2.72133 186.562 5.09191 188.31 6.83975C190.058 8.58759 192.428 9.56951 194.9 9.56951C196.123 9.56951 197.335 9.32837 198.465 8.85987C199.595 8.39138 200.622 7.70471 201.487 6.83914C202.351 5.97357 203.037 4.94606 203.504 3.81537C203.971 2.68467 204.211 1.47296 204.21 0.249512L209.37 0.249512C209.37 2.72133 210.352 5.09191 212.1 6.83975C213.848 8.58759 216.218 9.56951 218.69 9.56951C219.913 9.56951 221.125 9.32837 222.255 8.85987C223.385 8.39138 224.412 7.70471 225.277 6.83914C226.141 5.97357 226.827 4.94606 227.294 3.81537C227.761 2.68467 228.001 1.47296 228 0.249512L233.16 0.249512C233.16 1.47512 233.402 2.68869 233.871 3.82075C234.341 4.95281 235.029 5.98112 235.897 6.84683C236.764 7.71253 237.794 8.39862 238.927 8.86582C240.06 9.33301 241.274 9.57214 242.5 9.56951C244.967 9.56421 247.332 8.57963 249.074 6.83208C250.816 5.08452 251.793 2.71695 251.79 0.249512L256.95 0.249512C256.95 2.72133 257.932 5.09191 259.68 6.83975C261.428 8.58759 263.798 9.56951 266.27 9.56951C267.493 9.56951 268.705 9.32837 269.835 8.85987C270.965 8.39138 271.992 7.70471 272.857 6.83914C273.721 5.97357 274.407 4.94606 274.874 3.81537C275.341 2.68467 275.581 1.47296 275.58 0.249512L281.83 0.249512C281.83 3.87502 283.27 7.35204 285.834 9.91566C288.397 12.4793 291.874 13.9195 295.5 13.9195Z" fill="white"/>
</svg>
