<svg width="57" height="56" viewBox="0 0 57 56" fill="none" xmlns="http://www.w3.org/2000/svg">
<path d="M24.4429 34.8834L18.7962 29.2368C18.6243 29.0765 18.4864 28.8833 18.3908 28.6687C18.2951 28.454 18.2437 28.2223 18.2395 27.9873C18.2354 27.7523 18.2786 27.5189 18.3666 27.301C18.4546 27.0831 18.5856 26.8852 18.7518 26.719C18.918 26.5528 19.1159 26.4218 19.3338 26.3338C19.5518 26.2458 19.7852 26.2026 20.0201 26.2067C20.2551 26.2109 20.4868 26.2623 20.7015 26.3579C20.9162 26.4536 21.1094 26.5915 21.2696 26.7634L25.6796 31.1734L35.7129 21.1401C36.0447 20.831 36.4834 20.6627 36.9368 20.6707C37.3902 20.6787 37.8227 20.8623 38.1434 21.183C38.464 21.5036 38.6477 21.9362 38.6557 22.3895C38.6636 22.8429 38.4954 23.2817 38.1862 23.6134L26.9209 34.8834C26.7587 35.0463 26.566 35.1755 26.3538 35.2636C26.1416 35.3518 25.914 35.3972 25.6842 35.3972C25.4544 35.3972 25.2269 35.3518 25.0147 35.2636C24.8025 35.1755 24.6097 35.0463 24.4476 34.8834H24.4429Z" fill="white"/>
<path d="M28.5024 53.0833C27.0096 53.0955 25.5615 52.5742 24.419 51.6133L20.7324 48.44C20.2043 48.0623 19.583 47.8364 18.9357 47.7867H14.9224C13.2644 47.7848 11.6749 47.1254 10.5026 45.9531C9.3303 44.7807 8.67087 43.1913 8.66902 41.5333V37.5433C8.61726 36.9037 8.39131 36.2904 8.01568 35.77L4.86568 32.06C3.93492 30.9161 3.42676 29.4864 3.42676 28.0117C3.42676 26.5369 3.93492 25.1072 4.86568 23.9633L8.01568 20.2533C8.39131 19.733 8.61726 19.1197 8.66902 18.48V14.4667C8.67087 12.8088 9.3303 11.2193 10.5026 10.0469C11.6749 8.87462 13.2644 8.21519 14.9224 8.21334H18.959C19.6036 8.15128 20.2218 7.92647 20.7557 7.56001L24.4424 4.38667C25.5862 3.43699 27.0261 2.91716 28.5129 2.91716C29.9996 2.91716 31.4395 3.43699 32.5834 4.38667L36.27 7.56001C36.7973 7.93752 37.4178 8.16346 38.0644 8.21334H42.031C43.6889 8.21519 45.2784 8.87462 46.4507 10.0469C47.6231 11.2193 48.2825 12.8088 48.2844 14.4667V18.4333C48.3447 19.0821 48.5784 19.7026 48.961 20.23L52.139 23.9167C53.088 25.0613 53.6074 26.5015 53.6074 27.9883C53.6074 29.4752 53.088 30.9154 52.139 32.06L48.9657 35.7467C48.5839 36.2745 48.3503 36.8948 48.289 37.5433V41.51C48.2872 43.1679 47.6277 44.7574 46.4554 45.9297C45.2831 47.1021 43.6936 47.7615 42.0357 47.7633H38.069C37.4252 47.8256 36.8078 48.0504 36.2747 48.4167L32.588 51.59C31.4529 52.5679 30.0005 53.0988 28.5024 53.0833ZM14.9224 11.7133C14.1923 11.714 13.4923 12.0042 12.9761 12.5205C12.4599 13.0367 12.1696 13.7366 12.169 14.4667V18.4567C12.1178 19.9277 11.5942 21.3432 10.6757 22.4933L7.52568 26.2033C7.131 26.7147 6.91692 27.3424 6.91692 27.9883C6.91692 28.6343 7.131 29.262 7.52568 29.7733L10.6757 33.4833C11.5879 34.6371 12.1107 36.0504 12.169 37.52V41.51C12.1696 42.24 12.4599 42.94 12.9761 43.4562C13.4923 43.9724 14.1923 44.2627 14.9224 44.2633H18.959C20.4488 44.3154 21.8818 44.8474 23.0447 45.78L26.729 48.9533C27.244 49.3509 27.8763 49.5665 28.5269 49.5665C29.1774 49.5665 29.8097 49.3509 30.3247 48.9533L34.0114 45.78C35.1783 44.8562 36.6076 44.3253 38.0947 44.2633H42.0614C42.7916 44.2627 43.4918 43.9725 44.0084 43.4564C44.525 42.9402 44.8158 42.2403 44.817 41.51V37.5433C44.8696 36.0544 45.4015 34.6222 46.3337 33.46L49.507 29.7733C49.9044 29.2587 50.1199 28.6269 50.1199 27.9767C50.1199 27.3265 49.9044 26.6947 49.507 26.18L46.3337 22.4933C45.4014 21.3312 44.8694 19.899 44.817 18.41V14.4667C44.8158 13.7364 44.525 13.0365 44.0084 12.5203C43.4918 12.0042 42.7916 11.714 42.0614 11.7133H38.0947C36.6057 11.6608 35.1736 11.1289 34.0114 10.1967L30.3247 7.02334C29.8097 6.62582 29.1774 6.41019 28.5269 6.41019C27.8763 6.41019 27.244 6.62582 26.729 7.02334L23.0424 10.22C21.8723 11.1368 20.4421 11.6595 18.9567 11.7133H14.9224Z" fill="white"/>
</svg>
